%TF.GenerationSoftware,KiCad,Pcbnew,9.0.3*%
%TF.CreationDate,2025-07-26T14:09:02-04:00*%
%TF.ProjectId,Avionics,4176696f-6e69-4637-932e-6b696361645f,V0.8*%
%TF.SameCoordinates,Original*%
%TF.FileFunction,Legend,Top*%
%TF.FilePolarity,Positive*%
%FSLAX46Y46*%
G04 Gerber Fmt 4.6, Leading zero omitted, Abs format (unit mm)*
G04 Created by KiCad (PCBNEW 9.0.3) date 2025-07-26 14:09:02*
%MOMM*%
%LPD*%
G01*
G04 APERTURE LIST*
%ADD10C,0.250000*%
%ADD11C,0.300000*%
%ADD12C,0.150000*%
%ADD13C,0.120000*%
%ADD14C,0.160000*%
%ADD15C,0.127000*%
%ADD16C,0.200000*%
G04 APERTURE END LIST*
D10*
X68306140Y-129521404D02*
X68782330Y-129521404D01*
X68210902Y-129807119D02*
X68544235Y-128807119D01*
X68544235Y-128807119D02*
X68877568Y-129807119D01*
X69782330Y-129711880D02*
X69734711Y-129759500D01*
X69734711Y-129759500D02*
X69591854Y-129807119D01*
X69591854Y-129807119D02*
X69496616Y-129807119D01*
X69496616Y-129807119D02*
X69353759Y-129759500D01*
X69353759Y-129759500D02*
X69258521Y-129664261D01*
X69258521Y-129664261D02*
X69210902Y-129569023D01*
X69210902Y-129569023D02*
X69163283Y-129378547D01*
X69163283Y-129378547D02*
X69163283Y-129235690D01*
X69163283Y-129235690D02*
X69210902Y-129045214D01*
X69210902Y-129045214D02*
X69258521Y-128949976D01*
X69258521Y-128949976D02*
X69353759Y-128854738D01*
X69353759Y-128854738D02*
X69496616Y-128807119D01*
X69496616Y-128807119D02*
X69591854Y-128807119D01*
X69591854Y-128807119D02*
X69734711Y-128854738D01*
X69734711Y-128854738D02*
X69782330Y-128902357D01*
X70068045Y-128807119D02*
X70639473Y-128807119D01*
X70353759Y-129807119D02*
X70353759Y-128807119D01*
X70972807Y-129807119D02*
X70972807Y-128807119D01*
X71306140Y-128807119D02*
X71639473Y-129807119D01*
X71639473Y-129807119D02*
X71972806Y-128807119D01*
X72306140Y-129807119D02*
X72306140Y-128807119D01*
X72639473Y-128807119D02*
X73210901Y-128807119D01*
X72925187Y-129807119D02*
X72925187Y-128807119D01*
X73734711Y-129330928D02*
X73734711Y-129807119D01*
X73401378Y-128807119D02*
X73734711Y-129330928D01*
X73734711Y-129330928D02*
X74068044Y-128807119D01*
D11*
X328858439Y-26481542D02*
X328715582Y-26624400D01*
X328715582Y-26624400D02*
X328287010Y-26767257D01*
X328287010Y-26767257D02*
X328001296Y-26767257D01*
X328001296Y-26767257D02*
X327572725Y-26624400D01*
X327572725Y-26624400D02*
X327287010Y-26338685D01*
X327287010Y-26338685D02*
X327144153Y-26052971D01*
X327144153Y-26052971D02*
X327001296Y-25481542D01*
X327001296Y-25481542D02*
X327001296Y-25052971D01*
X327001296Y-25052971D02*
X327144153Y-24481542D01*
X327144153Y-24481542D02*
X327287010Y-24195828D01*
X327287010Y-24195828D02*
X327572725Y-23910114D01*
X327572725Y-23910114D02*
X328001296Y-23767257D01*
X328001296Y-23767257D02*
X328287010Y-23767257D01*
X328287010Y-23767257D02*
X328715582Y-23910114D01*
X328715582Y-23910114D02*
X328858439Y-24052971D01*
X330715582Y-23767257D02*
X331287010Y-23767257D01*
X331287010Y-23767257D02*
X331572725Y-23910114D01*
X331572725Y-23910114D02*
X331858439Y-24195828D01*
X331858439Y-24195828D02*
X332001296Y-24767257D01*
X332001296Y-24767257D02*
X332001296Y-25767257D01*
X332001296Y-25767257D02*
X331858439Y-26338685D01*
X331858439Y-26338685D02*
X331572725Y-26624400D01*
X331572725Y-26624400D02*
X331287010Y-26767257D01*
X331287010Y-26767257D02*
X330715582Y-26767257D01*
X330715582Y-26767257D02*
X330429868Y-26624400D01*
X330429868Y-26624400D02*
X330144153Y-26338685D01*
X330144153Y-26338685D02*
X330001296Y-25767257D01*
X330001296Y-25767257D02*
X330001296Y-24767257D01*
X330001296Y-24767257D02*
X330144153Y-24195828D01*
X330144153Y-24195828D02*
X330429868Y-23910114D01*
X330429868Y-23910114D02*
X330715582Y-23767257D01*
X333287010Y-26767257D02*
X333287010Y-23767257D01*
X333287010Y-23767257D02*
X334287010Y-25910114D01*
X334287010Y-25910114D02*
X335287010Y-23767257D01*
X335287010Y-23767257D02*
X335287010Y-26767257D01*
X336715581Y-26767257D02*
X336715581Y-23767257D01*
X336715581Y-23767257D02*
X337715581Y-25910114D01*
X337715581Y-25910114D02*
X338715581Y-23767257D01*
X338715581Y-23767257D02*
X338715581Y-26767257D01*
D10*
X75829949Y-129807119D02*
X75829949Y-128807119D01*
X75829949Y-128807119D02*
X76210901Y-128807119D01*
X76210901Y-128807119D02*
X76306139Y-128854738D01*
X76306139Y-128854738D02*
X76353758Y-128902357D01*
X76353758Y-128902357D02*
X76401377Y-128997595D01*
X76401377Y-128997595D02*
X76401377Y-129140452D01*
X76401377Y-129140452D02*
X76353758Y-129235690D01*
X76353758Y-129235690D02*
X76306139Y-129283309D01*
X76306139Y-129283309D02*
X76210901Y-129330928D01*
X76210901Y-129330928D02*
X75829949Y-129330928D01*
X77020425Y-128807119D02*
X77210901Y-128807119D01*
X77210901Y-128807119D02*
X77306139Y-128854738D01*
X77306139Y-128854738D02*
X77401377Y-128949976D01*
X77401377Y-128949976D02*
X77448996Y-129140452D01*
X77448996Y-129140452D02*
X77448996Y-129473785D01*
X77448996Y-129473785D02*
X77401377Y-129664261D01*
X77401377Y-129664261D02*
X77306139Y-129759500D01*
X77306139Y-129759500D02*
X77210901Y-129807119D01*
X77210901Y-129807119D02*
X77020425Y-129807119D01*
X77020425Y-129807119D02*
X76925187Y-129759500D01*
X76925187Y-129759500D02*
X76829949Y-129664261D01*
X76829949Y-129664261D02*
X76782330Y-129473785D01*
X76782330Y-129473785D02*
X76782330Y-129140452D01*
X76782330Y-129140452D02*
X76829949Y-128949976D01*
X76829949Y-128949976D02*
X76925187Y-128854738D01*
X76925187Y-128854738D02*
X77020425Y-128807119D01*
X77782330Y-128807119D02*
X78020425Y-129807119D01*
X78020425Y-129807119D02*
X78210901Y-129092833D01*
X78210901Y-129092833D02*
X78401377Y-129807119D01*
X78401377Y-129807119D02*
X78639473Y-128807119D01*
X79020425Y-129283309D02*
X79353758Y-129283309D01*
X79496615Y-129807119D02*
X79020425Y-129807119D01*
X79020425Y-129807119D02*
X79020425Y-128807119D01*
X79020425Y-128807119D02*
X79496615Y-128807119D01*
X80496615Y-129807119D02*
X80163282Y-129330928D01*
X79925187Y-129807119D02*
X79925187Y-128807119D01*
X79925187Y-128807119D02*
X80306139Y-128807119D01*
X80306139Y-128807119D02*
X80401377Y-128854738D01*
X80401377Y-128854738D02*
X80448996Y-128902357D01*
X80448996Y-128902357D02*
X80496615Y-128997595D01*
X80496615Y-128997595D02*
X80496615Y-129140452D01*
X80496615Y-129140452D02*
X80448996Y-129235690D01*
X80448996Y-129235690D02*
X80401377Y-129283309D01*
X80401377Y-129283309D02*
X80306139Y-129330928D01*
X80306139Y-129330928D02*
X79925187Y-129330928D01*
D11*
X214272724Y-25195828D02*
X215272724Y-25195828D01*
X215701296Y-26767257D02*
X214272724Y-26767257D01*
X214272724Y-26767257D02*
X214272724Y-23767257D01*
X214272724Y-23767257D02*
X215701296Y-23767257D01*
X216987010Y-26767257D02*
X216987010Y-23767257D01*
X216987010Y-23767257D02*
X218129867Y-23767257D01*
X218129867Y-23767257D02*
X218415582Y-23910114D01*
X218415582Y-23910114D02*
X218558439Y-24052971D01*
X218558439Y-24052971D02*
X218701296Y-24338685D01*
X218701296Y-24338685D02*
X218701296Y-24767257D01*
X218701296Y-24767257D02*
X218558439Y-25052971D01*
X218558439Y-25052971D02*
X218415582Y-25195828D01*
X218415582Y-25195828D02*
X218129867Y-25338685D01*
X218129867Y-25338685D02*
X216987010Y-25338685D01*
X219844153Y-26624400D02*
X220272725Y-26767257D01*
X220272725Y-26767257D02*
X220987010Y-26767257D01*
X220987010Y-26767257D02*
X221272725Y-26624400D01*
X221272725Y-26624400D02*
X221415582Y-26481542D01*
X221415582Y-26481542D02*
X221558439Y-26195828D01*
X221558439Y-26195828D02*
X221558439Y-25910114D01*
X221558439Y-25910114D02*
X221415582Y-25624400D01*
X221415582Y-25624400D02*
X221272725Y-25481542D01*
X221272725Y-25481542D02*
X220987010Y-25338685D01*
X220987010Y-25338685D02*
X220415582Y-25195828D01*
X220415582Y-25195828D02*
X220129867Y-25052971D01*
X220129867Y-25052971D02*
X219987010Y-24910114D01*
X219987010Y-24910114D02*
X219844153Y-24624400D01*
X219844153Y-24624400D02*
X219844153Y-24338685D01*
X219844153Y-24338685D02*
X219987010Y-24052971D01*
X219987010Y-24052971D02*
X220129867Y-23910114D01*
X220129867Y-23910114D02*
X220415582Y-23767257D01*
X220415582Y-23767257D02*
X221129867Y-23767257D01*
X221129867Y-23767257D02*
X221558439Y-23910114D01*
X98664153Y-23767257D02*
X99235581Y-23767257D01*
X99235581Y-23767257D02*
X99521296Y-23910114D01*
X99521296Y-23910114D02*
X99807010Y-24195828D01*
X99807010Y-24195828D02*
X99949867Y-24767257D01*
X99949867Y-24767257D02*
X99949867Y-25767257D01*
X99949867Y-25767257D02*
X99807010Y-26338685D01*
X99807010Y-26338685D02*
X99521296Y-26624400D01*
X99521296Y-26624400D02*
X99235581Y-26767257D01*
X99235581Y-26767257D02*
X98664153Y-26767257D01*
X98664153Y-26767257D02*
X98378439Y-26624400D01*
X98378439Y-26624400D02*
X98092724Y-26338685D01*
X98092724Y-26338685D02*
X97949867Y-25767257D01*
X97949867Y-25767257D02*
X97949867Y-24767257D01*
X97949867Y-24767257D02*
X98092724Y-24195828D01*
X98092724Y-24195828D02*
X98378439Y-23910114D01*
X98378439Y-23910114D02*
X98664153Y-23767257D01*
X102235581Y-25195828D02*
X102664153Y-25338685D01*
X102664153Y-25338685D02*
X102807010Y-25481542D01*
X102807010Y-25481542D02*
X102949867Y-25767257D01*
X102949867Y-25767257D02*
X102949867Y-26195828D01*
X102949867Y-26195828D02*
X102807010Y-26481542D01*
X102807010Y-26481542D02*
X102664153Y-26624400D01*
X102664153Y-26624400D02*
X102378438Y-26767257D01*
X102378438Y-26767257D02*
X101235581Y-26767257D01*
X101235581Y-26767257D02*
X101235581Y-23767257D01*
X101235581Y-23767257D02*
X102235581Y-23767257D01*
X102235581Y-23767257D02*
X102521296Y-23910114D01*
X102521296Y-23910114D02*
X102664153Y-24052971D01*
X102664153Y-24052971D02*
X102807010Y-24338685D01*
X102807010Y-24338685D02*
X102807010Y-24624400D01*
X102807010Y-24624400D02*
X102664153Y-24910114D01*
X102664153Y-24910114D02*
X102521296Y-25052971D01*
X102521296Y-25052971D02*
X102235581Y-25195828D01*
X102235581Y-25195828D02*
X101235581Y-25195828D01*
X105949867Y-26481542D02*
X105807010Y-26624400D01*
X105807010Y-26624400D02*
X105378438Y-26767257D01*
X105378438Y-26767257D02*
X105092724Y-26767257D01*
X105092724Y-26767257D02*
X104664153Y-26624400D01*
X104664153Y-26624400D02*
X104378438Y-26338685D01*
X104378438Y-26338685D02*
X104235581Y-26052971D01*
X104235581Y-26052971D02*
X104092724Y-25481542D01*
X104092724Y-25481542D02*
X104092724Y-25052971D01*
X104092724Y-25052971D02*
X104235581Y-24481542D01*
X104235581Y-24481542D02*
X104378438Y-24195828D01*
X104378438Y-24195828D02*
X104664153Y-23910114D01*
X104664153Y-23910114D02*
X105092724Y-23767257D01*
X105092724Y-23767257D02*
X105378438Y-23767257D01*
X105378438Y-23767257D02*
X105807010Y-23910114D01*
X105807010Y-23910114D02*
X105949867Y-24052971D01*
D12*
X78704819Y-123680594D02*
X77704819Y-123680594D01*
X77704819Y-123680594D02*
X77704819Y-123442499D01*
X77704819Y-123442499D02*
X77752438Y-123299642D01*
X77752438Y-123299642D02*
X77847676Y-123204404D01*
X77847676Y-123204404D02*
X77942914Y-123156785D01*
X77942914Y-123156785D02*
X78133390Y-123109166D01*
X78133390Y-123109166D02*
X78276247Y-123109166D01*
X78276247Y-123109166D02*
X78466723Y-123156785D01*
X78466723Y-123156785D02*
X78561961Y-123204404D01*
X78561961Y-123204404D02*
X78657200Y-123299642D01*
X78657200Y-123299642D02*
X78704819Y-123442499D01*
X78704819Y-123442499D02*
X78704819Y-123680594D01*
X78704819Y-122156785D02*
X78704819Y-122728213D01*
X78704819Y-122442499D02*
X77704819Y-122442499D01*
X77704819Y-122442499D02*
X77847676Y-122537737D01*
X77847676Y-122537737D02*
X77942914Y-122632975D01*
X77942914Y-122632975D02*
X77990533Y-122728213D01*
X69204819Y-123041666D02*
X68728628Y-123374999D01*
X69204819Y-123613094D02*
X68204819Y-123613094D01*
X68204819Y-123613094D02*
X68204819Y-123232142D01*
X68204819Y-123232142D02*
X68252438Y-123136904D01*
X68252438Y-123136904D02*
X68300057Y-123089285D01*
X68300057Y-123089285D02*
X68395295Y-123041666D01*
X68395295Y-123041666D02*
X68538152Y-123041666D01*
X68538152Y-123041666D02*
X68633390Y-123089285D01*
X68633390Y-123089285D02*
X68681009Y-123136904D01*
X68681009Y-123136904D02*
X68728628Y-123232142D01*
X68728628Y-123232142D02*
X68728628Y-123613094D01*
X68204819Y-122184523D02*
X68204819Y-122374999D01*
X68204819Y-122374999D02*
X68252438Y-122470237D01*
X68252438Y-122470237D02*
X68300057Y-122517856D01*
X68300057Y-122517856D02*
X68442914Y-122613094D01*
X68442914Y-122613094D02*
X68633390Y-122660713D01*
X68633390Y-122660713D02*
X69014342Y-122660713D01*
X69014342Y-122660713D02*
X69109580Y-122613094D01*
X69109580Y-122613094D02*
X69157200Y-122565475D01*
X69157200Y-122565475D02*
X69204819Y-122470237D01*
X69204819Y-122470237D02*
X69204819Y-122279761D01*
X69204819Y-122279761D02*
X69157200Y-122184523D01*
X69157200Y-122184523D02*
X69109580Y-122136904D01*
X69109580Y-122136904D02*
X69014342Y-122089285D01*
X69014342Y-122089285D02*
X68776247Y-122089285D01*
X68776247Y-122089285D02*
X68681009Y-122136904D01*
X68681009Y-122136904D02*
X68633390Y-122184523D01*
X68633390Y-122184523D02*
X68585771Y-122279761D01*
X68585771Y-122279761D02*
X68585771Y-122470237D01*
X68585771Y-122470237D02*
X68633390Y-122565475D01*
X68633390Y-122565475D02*
X68681009Y-122613094D01*
X68681009Y-122613094D02*
X68776247Y-122660713D01*
X71704819Y-123680594D02*
X70704819Y-123680594D01*
X70704819Y-123680594D02*
X70704819Y-123442499D01*
X70704819Y-123442499D02*
X70752438Y-123299642D01*
X70752438Y-123299642D02*
X70847676Y-123204404D01*
X70847676Y-123204404D02*
X70942914Y-123156785D01*
X70942914Y-123156785D02*
X71133390Y-123109166D01*
X71133390Y-123109166D02*
X71276247Y-123109166D01*
X71276247Y-123109166D02*
X71466723Y-123156785D01*
X71466723Y-123156785D02*
X71561961Y-123204404D01*
X71561961Y-123204404D02*
X71657200Y-123299642D01*
X71657200Y-123299642D02*
X71704819Y-123442499D01*
X71704819Y-123442499D02*
X71704819Y-123680594D01*
X70800057Y-122728213D02*
X70752438Y-122680594D01*
X70752438Y-122680594D02*
X70704819Y-122585356D01*
X70704819Y-122585356D02*
X70704819Y-122347261D01*
X70704819Y-122347261D02*
X70752438Y-122252023D01*
X70752438Y-122252023D02*
X70800057Y-122204404D01*
X70800057Y-122204404D02*
X70895295Y-122156785D01*
X70895295Y-122156785D02*
X70990533Y-122156785D01*
X70990533Y-122156785D02*
X71133390Y-122204404D01*
X71133390Y-122204404D02*
X71704819Y-122775832D01*
X71704819Y-122775832D02*
X71704819Y-122156785D01*
X180554166Y-36492518D02*
X180554166Y-35492518D01*
X180554166Y-35492518D02*
X180887499Y-36206803D01*
X180887499Y-36206803D02*
X181220832Y-35492518D01*
X181220832Y-35492518D02*
X181220832Y-36492518D01*
X181697023Y-36492518D02*
X181697023Y-35492518D01*
X181697023Y-35968708D02*
X182268451Y-35968708D01*
X182268451Y-36492518D02*
X182268451Y-35492518D01*
X182792261Y-36492518D02*
X182982737Y-36492518D01*
X182982737Y-36492518D02*
X183077975Y-36444899D01*
X183077975Y-36444899D02*
X183125594Y-36397279D01*
X183125594Y-36397279D02*
X183220832Y-36254422D01*
X183220832Y-36254422D02*
X183268451Y-36063946D01*
X183268451Y-36063946D02*
X183268451Y-35682994D01*
X183268451Y-35682994D02*
X183220832Y-35587756D01*
X183220832Y-35587756D02*
X183173213Y-35540137D01*
X183173213Y-35540137D02*
X183077975Y-35492518D01*
X183077975Y-35492518D02*
X182887499Y-35492518D01*
X182887499Y-35492518D02*
X182792261Y-35540137D01*
X182792261Y-35540137D02*
X182744642Y-35587756D01*
X182744642Y-35587756D02*
X182697023Y-35682994D01*
X182697023Y-35682994D02*
X182697023Y-35921089D01*
X182697023Y-35921089D02*
X182744642Y-36016327D01*
X182744642Y-36016327D02*
X182792261Y-36063946D01*
X182792261Y-36063946D02*
X182887499Y-36111565D01*
X182887499Y-36111565D02*
X183077975Y-36111565D01*
X183077975Y-36111565D02*
X183173213Y-36063946D01*
X183173213Y-36063946D02*
X183220832Y-36016327D01*
X183220832Y-36016327D02*
X183268451Y-35921089D01*
X253737975Y-36492518D02*
X253737975Y-35492518D01*
X253737975Y-35492518D02*
X254071308Y-36206803D01*
X254071308Y-36206803D02*
X254404641Y-35492518D01*
X254404641Y-35492518D02*
X254404641Y-36492518D01*
X254880832Y-36492518D02*
X254880832Y-35492518D01*
X254880832Y-35968708D02*
X255452260Y-35968708D01*
X255452260Y-36492518D02*
X255452260Y-35492518D01*
X256452260Y-36492518D02*
X255880832Y-36492518D01*
X256166546Y-36492518D02*
X256166546Y-35492518D01*
X256166546Y-35492518D02*
X256071308Y-35635375D01*
X256071308Y-35635375D02*
X255976070Y-35730613D01*
X255976070Y-35730613D02*
X255880832Y-35778232D01*
X257071308Y-35492518D02*
X257166546Y-35492518D01*
X257166546Y-35492518D02*
X257261784Y-35540137D01*
X257261784Y-35540137D02*
X257309403Y-35587756D01*
X257309403Y-35587756D02*
X257357022Y-35682994D01*
X257357022Y-35682994D02*
X257404641Y-35873470D01*
X257404641Y-35873470D02*
X257404641Y-36111565D01*
X257404641Y-36111565D02*
X257357022Y-36302041D01*
X257357022Y-36302041D02*
X257309403Y-36397279D01*
X257309403Y-36397279D02*
X257261784Y-36444899D01*
X257261784Y-36444899D02*
X257166546Y-36492518D01*
X257166546Y-36492518D02*
X257071308Y-36492518D01*
X257071308Y-36492518D02*
X256976070Y-36444899D01*
X256976070Y-36444899D02*
X256928451Y-36397279D01*
X256928451Y-36397279D02*
X256880832Y-36302041D01*
X256880832Y-36302041D02*
X256833213Y-36111565D01*
X256833213Y-36111565D02*
X256833213Y-35873470D01*
X256833213Y-35873470D02*
X256880832Y-35682994D01*
X256880832Y-35682994D02*
X256928451Y-35587756D01*
X256928451Y-35587756D02*
X256976070Y-35540137D01*
X256976070Y-35540137D02*
X257071308Y-35492518D01*
X176267975Y-122217518D02*
X176267975Y-121217518D01*
X176267975Y-121217518D02*
X176601308Y-121931803D01*
X176601308Y-121931803D02*
X176934641Y-121217518D01*
X176934641Y-121217518D02*
X176934641Y-122217518D01*
X177410832Y-122217518D02*
X177410832Y-121217518D01*
X177410832Y-121693708D02*
X177982260Y-121693708D01*
X177982260Y-122217518D02*
X177982260Y-121217518D01*
X178982260Y-122217518D02*
X178410832Y-122217518D01*
X178696546Y-122217518D02*
X178696546Y-121217518D01*
X178696546Y-121217518D02*
X178601308Y-121360375D01*
X178601308Y-121360375D02*
X178506070Y-121455613D01*
X178506070Y-121455613D02*
X178410832Y-121503232D01*
X179363213Y-121312756D02*
X179410832Y-121265137D01*
X179410832Y-121265137D02*
X179506070Y-121217518D01*
X179506070Y-121217518D02*
X179744165Y-121217518D01*
X179744165Y-121217518D02*
X179839403Y-121265137D01*
X179839403Y-121265137D02*
X179887022Y-121312756D01*
X179887022Y-121312756D02*
X179934641Y-121407994D01*
X179934641Y-121407994D02*
X179934641Y-121503232D01*
X179934641Y-121503232D02*
X179887022Y-121646089D01*
X179887022Y-121646089D02*
X179315594Y-122217518D01*
X179315594Y-122217518D02*
X179934641Y-122217518D01*
X256277975Y-122217518D02*
X256277975Y-121217518D01*
X256277975Y-121217518D02*
X256611308Y-121931803D01*
X256611308Y-121931803D02*
X256944641Y-121217518D01*
X256944641Y-121217518D02*
X256944641Y-122217518D01*
X257420832Y-122217518D02*
X257420832Y-121217518D01*
X257420832Y-121693708D02*
X257992260Y-121693708D01*
X257992260Y-122217518D02*
X257992260Y-121217518D01*
X258992260Y-122217518D02*
X258420832Y-122217518D01*
X258706546Y-122217518D02*
X258706546Y-121217518D01*
X258706546Y-121217518D02*
X258611308Y-121360375D01*
X258611308Y-121360375D02*
X258516070Y-121455613D01*
X258516070Y-121455613D02*
X258420832Y-121503232D01*
X259944641Y-122217518D02*
X259373213Y-122217518D01*
X259658927Y-122217518D02*
X259658927Y-121217518D01*
X259658927Y-121217518D02*
X259563689Y-121360375D01*
X259563689Y-121360375D02*
X259468451Y-121455613D01*
X259468451Y-121455613D02*
X259373213Y-121503232D01*
X369014166Y-36242518D02*
X369014166Y-35242518D01*
X369014166Y-35242518D02*
X369347499Y-35956803D01*
X369347499Y-35956803D02*
X369680832Y-35242518D01*
X369680832Y-35242518D02*
X369680832Y-36242518D01*
X370157023Y-36242518D02*
X370157023Y-35242518D01*
X370157023Y-35718708D02*
X370728451Y-35718708D01*
X370728451Y-36242518D02*
X370728451Y-35242518D01*
X371633213Y-35242518D02*
X371442737Y-35242518D01*
X371442737Y-35242518D02*
X371347499Y-35290137D01*
X371347499Y-35290137D02*
X371299880Y-35337756D01*
X371299880Y-35337756D02*
X371204642Y-35480613D01*
X371204642Y-35480613D02*
X371157023Y-35671089D01*
X371157023Y-35671089D02*
X371157023Y-36052041D01*
X371157023Y-36052041D02*
X371204642Y-36147279D01*
X371204642Y-36147279D02*
X371252261Y-36194899D01*
X371252261Y-36194899D02*
X371347499Y-36242518D01*
X371347499Y-36242518D02*
X371537975Y-36242518D01*
X371537975Y-36242518D02*
X371633213Y-36194899D01*
X371633213Y-36194899D02*
X371680832Y-36147279D01*
X371680832Y-36147279D02*
X371728451Y-36052041D01*
X371728451Y-36052041D02*
X371728451Y-35813946D01*
X371728451Y-35813946D02*
X371680832Y-35718708D01*
X371680832Y-35718708D02*
X371633213Y-35671089D01*
X371633213Y-35671089D02*
X371537975Y-35623470D01*
X371537975Y-35623470D02*
X371347499Y-35623470D01*
X371347499Y-35623470D02*
X371252261Y-35671089D01*
X371252261Y-35671089D02*
X371204642Y-35718708D01*
X371204642Y-35718708D02*
X371157023Y-35813946D01*
X124523333Y-121504104D02*
X124999523Y-121504104D01*
X124428095Y-121789819D02*
X124761428Y-120789819D01*
X124761428Y-120789819D02*
X125094761Y-121789819D01*
X125428095Y-121266009D02*
X125761428Y-121266009D01*
X125904285Y-121789819D02*
X125428095Y-121789819D01*
X125428095Y-121789819D02*
X125428095Y-120789819D01*
X125428095Y-120789819D02*
X125904285Y-120789819D01*
X126856666Y-121789819D02*
X126285238Y-121789819D01*
X126570952Y-121789819D02*
X126570952Y-120789819D01*
X126570952Y-120789819D02*
X126475714Y-120932676D01*
X126475714Y-120932676D02*
X126380476Y-121027914D01*
X126380476Y-121027914D02*
X126285238Y-121075533D01*
X291544166Y-121967518D02*
X291544166Y-120967518D01*
X291544166Y-120967518D02*
X291877499Y-121681803D01*
X291877499Y-121681803D02*
X292210832Y-120967518D01*
X292210832Y-120967518D02*
X292210832Y-121967518D01*
X292687023Y-121967518D02*
X292687023Y-120967518D01*
X292687023Y-121443708D02*
X293258451Y-121443708D01*
X293258451Y-121967518D02*
X293258451Y-120967518D01*
X293877499Y-121396089D02*
X293782261Y-121348470D01*
X293782261Y-121348470D02*
X293734642Y-121300851D01*
X293734642Y-121300851D02*
X293687023Y-121205613D01*
X293687023Y-121205613D02*
X293687023Y-121157994D01*
X293687023Y-121157994D02*
X293734642Y-121062756D01*
X293734642Y-121062756D02*
X293782261Y-121015137D01*
X293782261Y-121015137D02*
X293877499Y-120967518D01*
X293877499Y-120967518D02*
X294067975Y-120967518D01*
X294067975Y-120967518D02*
X294163213Y-121015137D01*
X294163213Y-121015137D02*
X294210832Y-121062756D01*
X294210832Y-121062756D02*
X294258451Y-121157994D01*
X294258451Y-121157994D02*
X294258451Y-121205613D01*
X294258451Y-121205613D02*
X294210832Y-121300851D01*
X294210832Y-121300851D02*
X294163213Y-121348470D01*
X294163213Y-121348470D02*
X294067975Y-121396089D01*
X294067975Y-121396089D02*
X293877499Y-121396089D01*
X293877499Y-121396089D02*
X293782261Y-121443708D01*
X293782261Y-121443708D02*
X293734642Y-121491327D01*
X293734642Y-121491327D02*
X293687023Y-121586565D01*
X293687023Y-121586565D02*
X293687023Y-121777041D01*
X293687023Y-121777041D02*
X293734642Y-121872279D01*
X293734642Y-121872279D02*
X293782261Y-121919899D01*
X293782261Y-121919899D02*
X293877499Y-121967518D01*
X293877499Y-121967518D02*
X294067975Y-121967518D01*
X294067975Y-121967518D02*
X294163213Y-121919899D01*
X294163213Y-121919899D02*
X294210832Y-121872279D01*
X294210832Y-121872279D02*
X294258451Y-121777041D01*
X294258451Y-121777041D02*
X294258451Y-121586565D01*
X294258451Y-121586565D02*
X294210832Y-121491327D01*
X294210832Y-121491327D02*
X294163213Y-121443708D01*
X294163213Y-121443708D02*
X294067975Y-121396089D01*
X64374166Y-36222518D02*
X64374166Y-35222518D01*
X64374166Y-35222518D02*
X64707499Y-35936803D01*
X64707499Y-35936803D02*
X65040832Y-35222518D01*
X65040832Y-35222518D02*
X65040832Y-36222518D01*
X65517023Y-36222518D02*
X65517023Y-35222518D01*
X65517023Y-35698708D02*
X66088451Y-35698708D01*
X66088451Y-36222518D02*
X66088451Y-35222518D01*
X67088451Y-36222518D02*
X66517023Y-36222518D01*
X66802737Y-36222518D02*
X66802737Y-35222518D01*
X66802737Y-35222518D02*
X66707499Y-35365375D01*
X66707499Y-35365375D02*
X66612261Y-35460613D01*
X66612261Y-35460613D02*
X66517023Y-35508232D01*
X295354166Y-36242518D02*
X295354166Y-35242518D01*
X295354166Y-35242518D02*
X295687499Y-35956803D01*
X295687499Y-35956803D02*
X296020832Y-35242518D01*
X296020832Y-35242518D02*
X296020832Y-36242518D01*
X296497023Y-36242518D02*
X296497023Y-35242518D01*
X296497023Y-35718708D02*
X297068451Y-35718708D01*
X297068451Y-36242518D02*
X297068451Y-35242518D01*
X298020832Y-35242518D02*
X297544642Y-35242518D01*
X297544642Y-35242518D02*
X297497023Y-35718708D01*
X297497023Y-35718708D02*
X297544642Y-35671089D01*
X297544642Y-35671089D02*
X297639880Y-35623470D01*
X297639880Y-35623470D02*
X297877975Y-35623470D01*
X297877975Y-35623470D02*
X297973213Y-35671089D01*
X297973213Y-35671089D02*
X298020832Y-35718708D01*
X298020832Y-35718708D02*
X298068451Y-35813946D01*
X298068451Y-35813946D02*
X298068451Y-36052041D01*
X298068451Y-36052041D02*
X298020832Y-36147279D01*
X298020832Y-36147279D02*
X297973213Y-36194899D01*
X297973213Y-36194899D02*
X297877975Y-36242518D01*
X297877975Y-36242518D02*
X297639880Y-36242518D01*
X297639880Y-36242518D02*
X297544642Y-36194899D01*
X297544642Y-36194899D02*
X297497023Y-36147279D01*
X57566666Y-61954819D02*
X57566666Y-62669104D01*
X57566666Y-62669104D02*
X57519047Y-62811961D01*
X57519047Y-62811961D02*
X57423809Y-62907200D01*
X57423809Y-62907200D02*
X57280952Y-62954819D01*
X57280952Y-62954819D02*
X57185714Y-62954819D01*
X58566666Y-62954819D02*
X57995238Y-62954819D01*
X58280952Y-62954819D02*
X58280952Y-61954819D01*
X58280952Y-61954819D02*
X58185714Y-62097676D01*
X58185714Y-62097676D02*
X58090476Y-62192914D01*
X58090476Y-62192914D02*
X57995238Y-62240533D01*
X60564166Y-121947518D02*
X60564166Y-120947518D01*
X60564166Y-120947518D02*
X60897499Y-121661803D01*
X60897499Y-121661803D02*
X61230832Y-120947518D01*
X61230832Y-120947518D02*
X61230832Y-121947518D01*
X61707023Y-121947518D02*
X61707023Y-120947518D01*
X61707023Y-121423708D02*
X62278451Y-121423708D01*
X62278451Y-121947518D02*
X62278451Y-120947518D01*
X63183213Y-121280851D02*
X63183213Y-121947518D01*
X62945118Y-120899899D02*
X62707023Y-121614184D01*
X62707023Y-121614184D02*
X63326070Y-121614184D01*
X138034166Y-36222518D02*
X138034166Y-35222518D01*
X138034166Y-35222518D02*
X138367499Y-35936803D01*
X138367499Y-35936803D02*
X138700832Y-35222518D01*
X138700832Y-35222518D02*
X138700832Y-36222518D01*
X139177023Y-36222518D02*
X139177023Y-35222518D01*
X139177023Y-35698708D02*
X139748451Y-35698708D01*
X139748451Y-36222518D02*
X139748451Y-35222518D01*
X140177023Y-35317756D02*
X140224642Y-35270137D01*
X140224642Y-35270137D02*
X140319880Y-35222518D01*
X140319880Y-35222518D02*
X140557975Y-35222518D01*
X140557975Y-35222518D02*
X140653213Y-35270137D01*
X140653213Y-35270137D02*
X140700832Y-35317756D01*
X140700832Y-35317756D02*
X140748451Y-35412994D01*
X140748451Y-35412994D02*
X140748451Y-35508232D01*
X140748451Y-35508232D02*
X140700832Y-35651089D01*
X140700832Y-35651089D02*
X140129404Y-36222518D01*
X140129404Y-36222518D02*
X140748451Y-36222518D01*
X140574166Y-121947518D02*
X140574166Y-120947518D01*
X140574166Y-120947518D02*
X140907499Y-121661803D01*
X140907499Y-121661803D02*
X141240832Y-120947518D01*
X141240832Y-120947518D02*
X141240832Y-121947518D01*
X141717023Y-121947518D02*
X141717023Y-120947518D01*
X141717023Y-121423708D02*
X142288451Y-121423708D01*
X142288451Y-121947518D02*
X142288451Y-120947518D01*
X142669404Y-120947518D02*
X143288451Y-120947518D01*
X143288451Y-120947518D02*
X142955118Y-121328470D01*
X142955118Y-121328470D02*
X143097975Y-121328470D01*
X143097975Y-121328470D02*
X143193213Y-121376089D01*
X143193213Y-121376089D02*
X143240832Y-121423708D01*
X143240832Y-121423708D02*
X143288451Y-121518946D01*
X143288451Y-121518946D02*
X143288451Y-121757041D01*
X143288451Y-121757041D02*
X143240832Y-121852279D01*
X143240832Y-121852279D02*
X143193213Y-121899899D01*
X143193213Y-121899899D02*
X143097975Y-121947518D01*
X143097975Y-121947518D02*
X142812261Y-121947518D01*
X142812261Y-121947518D02*
X142717023Y-121899899D01*
X142717023Y-121899899D02*
X142669404Y-121852279D01*
X76204819Y-123041666D02*
X75728628Y-123374999D01*
X76204819Y-123613094D02*
X75204819Y-123613094D01*
X75204819Y-123613094D02*
X75204819Y-123232142D01*
X75204819Y-123232142D02*
X75252438Y-123136904D01*
X75252438Y-123136904D02*
X75300057Y-123089285D01*
X75300057Y-123089285D02*
X75395295Y-123041666D01*
X75395295Y-123041666D02*
X75538152Y-123041666D01*
X75538152Y-123041666D02*
X75633390Y-123089285D01*
X75633390Y-123089285D02*
X75681009Y-123136904D01*
X75681009Y-123136904D02*
X75728628Y-123232142D01*
X75728628Y-123232142D02*
X75728628Y-123613094D01*
X75204819Y-122136904D02*
X75204819Y-122613094D01*
X75204819Y-122613094D02*
X75681009Y-122660713D01*
X75681009Y-122660713D02*
X75633390Y-122613094D01*
X75633390Y-122613094D02*
X75585771Y-122517856D01*
X75585771Y-122517856D02*
X75585771Y-122279761D01*
X75585771Y-122279761D02*
X75633390Y-122184523D01*
X75633390Y-122184523D02*
X75681009Y-122136904D01*
X75681009Y-122136904D02*
X75776247Y-122089285D01*
X75776247Y-122089285D02*
X76014342Y-122089285D01*
X76014342Y-122089285D02*
X76109580Y-122136904D01*
X76109580Y-122136904D02*
X76157200Y-122184523D01*
X76157200Y-122184523D02*
X76204819Y-122279761D01*
X76204819Y-122279761D02*
X76204819Y-122517856D01*
X76204819Y-122517856D02*
X76157200Y-122613094D01*
X76157200Y-122613094D02*
X76109580Y-122660713D01*
X371554166Y-121967518D02*
X371554166Y-120967518D01*
X371554166Y-120967518D02*
X371887499Y-121681803D01*
X371887499Y-121681803D02*
X372220832Y-120967518D01*
X372220832Y-120967518D02*
X372220832Y-121967518D01*
X372697023Y-121967518D02*
X372697023Y-120967518D01*
X372697023Y-121443708D02*
X373268451Y-121443708D01*
X373268451Y-121967518D02*
X373268451Y-120967518D01*
X373649404Y-120967518D02*
X374316070Y-120967518D01*
X374316070Y-120967518D02*
X373887499Y-121967518D01*
D13*
%TO.C,D1*%
X77290000Y-124942500D02*
X77290000Y-127627500D01*
X77290000Y-127627500D02*
X79210000Y-127627500D01*
X79210000Y-127627500D02*
X79210000Y-124942500D01*
%TO.C,R6*%
X68015000Y-126189564D02*
X68015000Y-125735436D01*
X69485000Y-126189564D02*
X69485000Y-125735436D01*
D14*
%TO.C,H1OBC1*%
X69262499Y-43792699D02*
X69262499Y-48742699D01*
X69262499Y-43792699D02*
X135812499Y-43792699D01*
X69262499Y-48742699D02*
X135812499Y-48742699D01*
X135812499Y-43792699D02*
X135812499Y-48742699D01*
D13*
%TO.C,D2*%
X70290000Y-124942500D02*
X70290000Y-127627500D01*
X70290000Y-127627500D02*
X72210000Y-127627500D01*
X72210000Y-127627500D02*
X72210000Y-124942500D01*
D14*
%TO.C,H2OBC1*%
X300242499Y-38732699D02*
X300242499Y-43682699D01*
X300242499Y-38732699D02*
X366792499Y-38732699D01*
X300242499Y-43682699D02*
X366792499Y-43682699D01*
X366792499Y-38732699D02*
X366792499Y-43682699D01*
X69262499Y-38712699D02*
X69262499Y-43662699D01*
X69262499Y-38712699D02*
X135812499Y-38712699D01*
X69262499Y-43662699D02*
X135812499Y-43662699D01*
X135812499Y-38712699D02*
X135812499Y-43662699D01*
D13*
%TO.C,AE1*%
X122335000Y-124635000D02*
X122335000Y-127535000D01*
X124240000Y-122730000D02*
X127140000Y-122730000D01*
X124240000Y-129440000D02*
X127140000Y-129440000D01*
X129045000Y-124635000D02*
X129045000Y-127535000D01*
D14*
%TO.C,H1OBC1*%
X185442499Y-44062699D02*
X185442499Y-49012699D01*
X185442499Y-44062699D02*
X251992499Y-44062699D01*
X185442499Y-49012699D02*
X251992499Y-49012699D01*
X251992499Y-44062699D02*
X251992499Y-49012699D01*
D15*
%TO.C,J1*%
X61050000Y-52400000D02*
X69222000Y-52400000D01*
X61050000Y-61400000D02*
X66222000Y-61400000D01*
X68878000Y-61400000D02*
X71050000Y-61400000D01*
X71050000Y-54480000D02*
X71050000Y-53220000D01*
X71050000Y-61400000D02*
X71050000Y-56124000D01*
D16*
X62550000Y-51400000D02*
G75*
G02*
X62350000Y-51400000I-100000J0D01*
G01*
X62350000Y-51400000D02*
G75*
G02*
X62550000Y-51400000I100000J0D01*
G01*
D15*
%TO.C,Module1*%
X59820000Y-84775000D02*
X62700000Y-84775000D01*
X59820000Y-85855000D02*
X59820000Y-84775000D01*
X59820000Y-106295000D02*
X59820000Y-107375000D01*
X59820000Y-107375000D02*
X62700000Y-107375000D01*
X62700000Y-84775000D02*
X62700000Y-85855000D01*
X62700000Y-107375000D02*
X62700000Y-106295000D01*
X93820000Y-84775000D02*
X96700000Y-84775000D01*
X93820000Y-85855000D02*
X93820000Y-84775000D01*
X93820000Y-106295000D02*
X93820000Y-107375000D01*
X93820000Y-107375000D02*
X96700000Y-107375000D01*
X96700000Y-84775000D02*
X96700000Y-85855000D01*
X96700000Y-107375000D02*
X96700000Y-106295000D01*
D16*
X57610000Y-86275000D02*
G75*
G02*
X57410000Y-86275000I-100000J0D01*
G01*
X57410000Y-86275000D02*
G75*
G02*
X57610000Y-86275000I100000J0D01*
G01*
D14*
%TO.C,H2OBC1*%
X185442499Y-38982699D02*
X185442499Y-43932699D01*
X185442499Y-38982699D02*
X251992499Y-38982699D01*
X185442499Y-43932699D02*
X251992499Y-43932699D01*
X251992499Y-38982699D02*
X251992499Y-43932699D01*
D13*
%TO.C,R5*%
X75015000Y-126189564D02*
X75015000Y-125735436D01*
X76485000Y-126189564D02*
X76485000Y-125735436D01*
D14*
%TO.C,H1OBC1*%
X300242499Y-43812699D02*
X300242499Y-48762699D01*
X300242499Y-43812699D02*
X366792499Y-43812699D01*
X300242499Y-48762699D02*
X366792499Y-48762699D01*
X366792499Y-43812699D02*
X366792499Y-48762699D01*
%TD*%
M02*
