%TF.GenerationSoftware,KiCad,Pcbnew,9.0.3*%
%TF.CreationDate,2025-07-26T14:09:02-04:00*%
%TF.ProjectId,Avionics,4176696f-6e69-4637-932e-6b696361645f,V0.8*%
%TF.SameCoordinates,Original*%
%TF.FileFunction,Soldermask,Top*%
%TF.FilePolarity,Negative*%
%FSLAX46Y46*%
G04 Gerber Fmt 4.6, Leading zero omitted, Abs format (unit mm)*
G04 Created by KiCad (PCBNEW 9.0.3) date 2025-07-26 14:09:02*
%MOMM*%
%LPD*%
G01*
G04 APERTURE LIST*
G04 Aperture macros list*
%AMRoundRect*
0 Rectangle with rounded corners*
0 $1 Rounding radius*
0 $2 $3 $4 $5 $6 $7 $8 $9 X,Y pos of 4 corners*
0 Add a 4 corners polygon primitive as box body*
4,1,4,$2,$3,$4,$5,$6,$7,$8,$9,$2,$3,0*
0 Add four circle primitives for the rounded corners*
1,1,$1+$1,$2,$3*
1,1,$1+$1,$4,$5*
1,1,$1+$1,$6,$7*
1,1,$1+$1,$8,$9*
0 Add four rect primitives between the rounded corners*
20,1,$1+$1,$2,$3,$4,$5,0*
20,1,$1+$1,$4,$5,$6,$7,0*
20,1,$1+$1,$6,$7,$8,$9,0*
20,1,$1+$1,$8,$9,$2,$3,0*%
G04 Aperture macros list end*
%ADD10RoundRect,0.243750X0.456250X-0.243750X0.456250X0.243750X-0.456250X0.243750X-0.456250X-0.243750X0*%
%ADD11RoundRect,0.250000X0.450000X-0.262500X0.450000X0.262500X-0.450000X0.262500X-0.450000X-0.262500X0*%
%ADD12C,1.365000*%
%ADD13C,0.800000*%
%ADD14C,6.400000*%
%ADD15C,2.050000*%
%ADD16C,2.250000*%
%ADD17C,1.200000*%
%ADD18O,1.212000X2.220000*%
%ADD19O,2.220000X1.212000*%
%ADD20RoundRect,0.102000X0.350000X-0.100000X0.350000X0.100000X-0.350000X0.100000X-0.350000X-0.100000X0*%
%ADD21C,6.004000*%
%ADD22C,5.500000*%
%ADD23C,1.016000*%
G04 APERTURE END LIST*
D10*
%TO.C,D1*%
X78250000Y-126880000D03*
X78250000Y-125005000D03*
%TD*%
D11*
%TO.C,R6*%
X68750000Y-126875000D03*
X68750000Y-125050000D03*
%TD*%
D12*
%TO.C,H1OBC1*%
X70787499Y-47537699D03*
X70787499Y-44997699D03*
X73327499Y-47537699D03*
X73327499Y-44997699D03*
X75867499Y-47537699D03*
X75867499Y-44997699D03*
X78407499Y-47537699D03*
X78407499Y-44997699D03*
X80947499Y-47537699D03*
X80947499Y-44997699D03*
X83487499Y-47537699D03*
X83487499Y-44997699D03*
X86027499Y-47537699D03*
X86027499Y-44997699D03*
X88567499Y-47537699D03*
X88567499Y-44997699D03*
X91107499Y-47537699D03*
X91107499Y-44997699D03*
X93647499Y-47537699D03*
X93647499Y-44997699D03*
X96187499Y-47537699D03*
X96187499Y-44997699D03*
X98727499Y-47537699D03*
X98727499Y-44997699D03*
X101267499Y-47537699D03*
X101267499Y-44997699D03*
X103807499Y-47537699D03*
X103807499Y-44997699D03*
X106347499Y-47537699D03*
X106347499Y-44997699D03*
X108887499Y-47537699D03*
X108887499Y-44997699D03*
X111427499Y-47537699D03*
X111427499Y-44997699D03*
X113967499Y-47537699D03*
X113967499Y-44997699D03*
X116507499Y-47537699D03*
X116507499Y-44997699D03*
X119047499Y-47537699D03*
X119047499Y-44997699D03*
X121587499Y-47537699D03*
X121587499Y-44997699D03*
X124127499Y-47537699D03*
X124127499Y-44997699D03*
X126667499Y-47537699D03*
X126667499Y-44997699D03*
X129207499Y-47537699D03*
X129207499Y-44997699D03*
X131747499Y-47537699D03*
X131747499Y-44997699D03*
X134287499Y-47537699D03*
X134287499Y-44997699D03*
%TD*%
D10*
%TO.C,D2*%
X71250000Y-126880000D03*
X71250000Y-125005000D03*
%TD*%
D13*
%TO.C,MH9*%
X179487499Y-40187699D03*
X180190443Y-38490643D03*
X180190443Y-41884755D03*
X181887499Y-37787699D03*
D14*
X181887499Y-40187699D03*
D13*
X181887499Y-42587699D03*
X183584555Y-38490643D03*
X183584555Y-41884755D03*
X184287499Y-40187699D03*
%TD*%
%TO.C,MH10*%
X253147499Y-40187699D03*
X253850443Y-38490643D03*
X253850443Y-41884755D03*
X255547499Y-37787699D03*
D14*
X255547499Y-40187699D03*
D13*
X255547499Y-42587699D03*
X257244555Y-38490643D03*
X257244555Y-41884755D03*
X257947499Y-40187699D03*
%TD*%
%TO.C,MH12*%
X175677499Y-125912699D03*
X176380443Y-124215643D03*
X176380443Y-127609755D03*
X178077499Y-123512699D03*
D14*
X178077499Y-125912699D03*
D13*
X178077499Y-128312699D03*
X179774555Y-124215643D03*
X179774555Y-127609755D03*
X180477499Y-125912699D03*
%TD*%
D12*
%TO.C,H2OBC1*%
X301767499Y-42477699D03*
X301767499Y-39937699D03*
X304307499Y-42477699D03*
X304307499Y-39937699D03*
X306847499Y-42477699D03*
X306847499Y-39937699D03*
X309387499Y-42477699D03*
X309387499Y-39937699D03*
X311927499Y-42477699D03*
X311927499Y-39937699D03*
X314467499Y-42477699D03*
X314467499Y-39937699D03*
X317007499Y-42477699D03*
X317007499Y-39937699D03*
X319547499Y-42477699D03*
X319547499Y-39937699D03*
X322087499Y-42477699D03*
X322087499Y-39937699D03*
X324627499Y-42477699D03*
X324627499Y-39937699D03*
X327167499Y-42477699D03*
X327167499Y-39937699D03*
X329707499Y-42477699D03*
X329707499Y-39937699D03*
X332247499Y-42477699D03*
X332247499Y-39937699D03*
X334787499Y-42477699D03*
X334787499Y-39937699D03*
X337327499Y-42477699D03*
X337327499Y-39937699D03*
X339867499Y-42477699D03*
X339867499Y-39937699D03*
X342407499Y-42477699D03*
X342407499Y-39937699D03*
X344947499Y-42477699D03*
X344947499Y-39937699D03*
X347487499Y-42477699D03*
X347487499Y-39937699D03*
X350027499Y-42477699D03*
X350027499Y-39937699D03*
X352567499Y-42477699D03*
X352567499Y-39937699D03*
X355107499Y-42477699D03*
X355107499Y-39937699D03*
X357647499Y-42477699D03*
X357647499Y-39937699D03*
X360187499Y-42477699D03*
X360187499Y-39937699D03*
X362727499Y-42477699D03*
X362727499Y-39937699D03*
X365267499Y-42477699D03*
X365267499Y-39937699D03*
%TD*%
D13*
%TO.C,MH11*%
X255687499Y-125912699D03*
X256390443Y-124215643D03*
X256390443Y-127609755D03*
X258087499Y-123512699D03*
D14*
X258087499Y-125912699D03*
D13*
X258087499Y-128312699D03*
X259784555Y-124215643D03*
X259784555Y-127609755D03*
X260487499Y-125912699D03*
%TD*%
D12*
%TO.C,H2OBC1*%
X70787499Y-42457699D03*
X70787499Y-39917699D03*
X73327499Y-42457699D03*
X73327499Y-39917699D03*
X75867499Y-42457699D03*
X75867499Y-39917699D03*
X78407499Y-42457699D03*
X78407499Y-39917699D03*
X80947499Y-42457699D03*
X80947499Y-39917699D03*
X83487499Y-42457699D03*
X83487499Y-39917699D03*
X86027499Y-42457699D03*
X86027499Y-39917699D03*
X88567499Y-42457699D03*
X88567499Y-39917699D03*
X91107499Y-42457699D03*
X91107499Y-39917699D03*
X93647499Y-42457699D03*
X93647499Y-39917699D03*
X96187499Y-42457699D03*
X96187499Y-39917699D03*
X98727499Y-42457699D03*
X98727499Y-39917699D03*
X101267499Y-42457699D03*
X101267499Y-39917699D03*
X103807499Y-42457699D03*
X103807499Y-39917699D03*
X106347499Y-42457699D03*
X106347499Y-39917699D03*
X108887499Y-42457699D03*
X108887499Y-39917699D03*
X111427499Y-42457699D03*
X111427499Y-39917699D03*
X113967499Y-42457699D03*
X113967499Y-39917699D03*
X116507499Y-42457699D03*
X116507499Y-39917699D03*
X119047499Y-42457699D03*
X119047499Y-39917699D03*
X121587499Y-42457699D03*
X121587499Y-39917699D03*
X124127499Y-42457699D03*
X124127499Y-39917699D03*
X126667499Y-42457699D03*
X126667499Y-39917699D03*
X129207499Y-42457699D03*
X129207499Y-39917699D03*
X131747499Y-42457699D03*
X131747499Y-39917699D03*
X134287499Y-42457699D03*
X134287499Y-39917699D03*
%TD*%
D13*
%TO.C,MH6*%
X367947499Y-39937699D03*
X368650443Y-38240643D03*
X368650443Y-41634755D03*
X370347499Y-37537699D03*
D14*
X370347499Y-39937699D03*
D13*
X370347499Y-42337699D03*
X372044555Y-38240643D03*
X372044555Y-41634755D03*
X372747499Y-39937699D03*
%TD*%
D15*
%TO.C,AE1*%
X125690000Y-126085000D03*
D16*
X123150000Y-123545000D03*
X123150000Y-128625000D03*
X128230000Y-123545000D03*
X128230000Y-128625000D03*
%TD*%
D13*
%TO.C,MH8*%
X290477499Y-125662699D03*
X291180443Y-123965643D03*
X291180443Y-127359755D03*
X292877499Y-123262699D03*
D14*
X292877499Y-125662699D03*
D13*
X292877499Y-128062699D03*
X294574555Y-123965643D03*
X294574555Y-127359755D03*
X295277499Y-125662699D03*
%TD*%
%TO.C,MH1*%
X63307499Y-39917699D03*
X64010443Y-38220643D03*
X64010443Y-41614755D03*
X65707499Y-37517699D03*
D14*
X65707499Y-39917699D03*
D13*
X65707499Y-42317699D03*
X67404555Y-38220643D03*
X67404555Y-41614755D03*
X68107499Y-39917699D03*
%TD*%
%TO.C,MH5*%
X294287499Y-39937699D03*
X294990443Y-38240643D03*
X294990443Y-41634755D03*
X296687499Y-37537699D03*
D14*
X296687499Y-39937699D03*
D13*
X296687499Y-42337699D03*
X298384555Y-38240643D03*
X298384555Y-41634755D03*
X299087499Y-39937699D03*
%TD*%
D12*
%TO.C,H1OBC1*%
X186967499Y-47807699D03*
X186967499Y-45267699D03*
X189507499Y-47807699D03*
X189507499Y-45267699D03*
X192047499Y-47807699D03*
X192047499Y-45267699D03*
X194587499Y-47807699D03*
X194587499Y-45267699D03*
X197127499Y-47807699D03*
X197127499Y-45267699D03*
X199667499Y-47807699D03*
X199667499Y-45267699D03*
X202207499Y-47807699D03*
X202207499Y-45267699D03*
X204747499Y-47807699D03*
X204747499Y-45267699D03*
X207287499Y-47807699D03*
X207287499Y-45267699D03*
X209827499Y-47807699D03*
X209827499Y-45267699D03*
X212367499Y-47807699D03*
X212367499Y-45267699D03*
X214907499Y-47807699D03*
X214907499Y-45267699D03*
X217447499Y-47807699D03*
X217447499Y-45267699D03*
X219987499Y-47807699D03*
X219987499Y-45267699D03*
X222527499Y-47807699D03*
X222527499Y-45267699D03*
X225067499Y-47807699D03*
X225067499Y-45267699D03*
X227607499Y-47807699D03*
X227607499Y-45267699D03*
X230147499Y-47807699D03*
X230147499Y-45267699D03*
X232687499Y-47807699D03*
X232687499Y-45267699D03*
X235227499Y-47807699D03*
X235227499Y-45267699D03*
X237767499Y-47807699D03*
X237767499Y-45267699D03*
X240307499Y-47807699D03*
X240307499Y-45267699D03*
X242847499Y-47807699D03*
X242847499Y-45267699D03*
X245387499Y-47807699D03*
X245387499Y-45267699D03*
X247927499Y-47807699D03*
X247927499Y-45267699D03*
X250467499Y-47807699D03*
X250467499Y-45267699D03*
%TD*%
D17*
%TO.C,J1*%
X63550000Y-53600000D03*
X63550000Y-60100000D03*
D18*
X62450000Y-57100000D03*
D19*
X70550000Y-55500000D03*
X67550000Y-60700000D03*
X68550000Y-53900000D03*
X70550000Y-52600000D03*
%TD*%
D20*
%TO.C,Module1*%
X59720000Y-86275000D03*
X62800000Y-86275000D03*
X59720000Y-86675000D03*
X62800000Y-86675000D03*
X59720000Y-87075000D03*
X62800000Y-87075000D03*
X59720000Y-87475000D03*
X62800000Y-87475000D03*
X59720000Y-87875000D03*
X62800000Y-87875000D03*
X59720000Y-88275000D03*
X62800000Y-88275000D03*
X59720000Y-88675000D03*
X62800000Y-88675000D03*
X59720000Y-89075000D03*
X62800000Y-89075000D03*
X59720000Y-89475000D03*
X62800000Y-89475000D03*
X59720000Y-89875000D03*
X62800000Y-89875000D03*
X59720000Y-90275000D03*
X62800000Y-90275000D03*
X59720000Y-90675000D03*
X62800000Y-90675000D03*
X59720000Y-91075000D03*
X62800000Y-91075000D03*
X59720000Y-91475000D03*
X62800000Y-91475000D03*
X59720000Y-91875000D03*
X62800000Y-91875000D03*
X59720000Y-92275000D03*
X62800000Y-92275000D03*
X59720000Y-92675000D03*
X62800000Y-92675000D03*
X59720000Y-93075000D03*
X62800000Y-93075000D03*
X59720000Y-93475000D03*
X62800000Y-93475000D03*
X59720000Y-93875000D03*
X62800000Y-93875000D03*
X59720000Y-94275000D03*
X62800000Y-94275000D03*
X59720000Y-94675000D03*
X62800000Y-94675000D03*
X59720000Y-95075000D03*
X62800000Y-95075000D03*
X59720000Y-95475000D03*
X62800000Y-95475000D03*
X59720000Y-95875000D03*
X62800000Y-95875000D03*
X59720000Y-96275000D03*
X62800000Y-96275000D03*
X59720000Y-96675000D03*
X62800000Y-96675000D03*
X59720000Y-97075000D03*
X62800000Y-97075000D03*
X59720000Y-97475000D03*
X62800000Y-97475000D03*
X59720000Y-97875000D03*
X62800000Y-97875000D03*
X59720000Y-98275000D03*
X62800000Y-98275000D03*
X59720000Y-98675000D03*
X62800000Y-98675000D03*
X59720000Y-99075000D03*
X62800000Y-99075000D03*
X59720000Y-99475000D03*
X62800000Y-99475000D03*
X59720000Y-99875000D03*
X62800000Y-99875000D03*
X59720000Y-100275000D03*
X62800000Y-100275000D03*
X59720000Y-100675000D03*
X62800000Y-100675000D03*
X59720000Y-101075000D03*
X62800000Y-101075000D03*
X59720000Y-101475000D03*
X62800000Y-101475000D03*
X59720000Y-101875000D03*
X62800000Y-101875000D03*
X59720000Y-102275000D03*
X62800000Y-102275000D03*
X59720000Y-102675000D03*
X62800000Y-102675000D03*
X59720000Y-103075000D03*
X62800000Y-103075000D03*
X59720000Y-103475000D03*
X62800000Y-103475000D03*
X59720000Y-103875000D03*
X62800000Y-103875000D03*
X59720000Y-104275000D03*
X62800000Y-104275000D03*
X59720000Y-104675000D03*
X62800000Y-104675000D03*
X59720000Y-105075000D03*
X62800000Y-105075000D03*
X59720000Y-105475000D03*
X62800000Y-105475000D03*
X59720000Y-105875000D03*
X62800000Y-105875000D03*
X93720000Y-86275000D03*
X96800000Y-86275000D03*
X93720000Y-86675000D03*
X96800000Y-86675000D03*
X93720000Y-87075000D03*
X96800000Y-87075000D03*
X93720000Y-87475000D03*
X96800000Y-87475000D03*
X93720000Y-87875000D03*
X96800000Y-87875000D03*
X93720000Y-88275000D03*
X96800000Y-88275000D03*
X93720000Y-88675000D03*
X96800000Y-88675000D03*
X93720000Y-89075000D03*
X96800000Y-89075000D03*
X93720000Y-89475000D03*
X96800000Y-89475000D03*
X93720000Y-89875000D03*
X96800000Y-89875000D03*
X93720000Y-90275000D03*
X96800000Y-90275000D03*
X93720000Y-90675000D03*
X96800000Y-90675000D03*
X93720000Y-91075000D03*
X96800000Y-91075000D03*
X93720000Y-91475000D03*
X96800000Y-91475000D03*
X93720000Y-91875000D03*
X96800000Y-91875000D03*
X93720000Y-92275000D03*
X96800000Y-92275000D03*
X93720000Y-92675000D03*
X96800000Y-92675000D03*
X93720000Y-93075000D03*
X96800000Y-93075000D03*
X93720000Y-93475000D03*
X96800000Y-93475000D03*
X93720000Y-93875000D03*
X96800000Y-93875000D03*
X93720000Y-94275000D03*
X96800000Y-94275000D03*
X93720000Y-94675000D03*
X96800000Y-94675000D03*
X93720000Y-95075000D03*
X96800000Y-95075000D03*
X93720000Y-95475000D03*
X96800000Y-95475000D03*
X93720000Y-95875000D03*
X96800000Y-95875000D03*
X93720000Y-96275000D03*
X96800000Y-96275000D03*
X93720000Y-96675000D03*
X96800000Y-96675000D03*
X93720000Y-97075000D03*
X96800000Y-97075000D03*
X93720000Y-97475000D03*
X96800000Y-97475000D03*
X93720000Y-97875000D03*
X96800000Y-97875000D03*
X93720000Y-98275000D03*
X96800000Y-98275000D03*
X93720000Y-98675000D03*
X96800000Y-98675000D03*
X93720000Y-99075000D03*
X96800000Y-99075000D03*
X93720000Y-99475000D03*
X96800000Y-99475000D03*
X93720000Y-99875000D03*
X96800000Y-99875000D03*
X93720000Y-100275000D03*
X96800000Y-100275000D03*
X93720000Y-100675000D03*
X96800000Y-100675000D03*
X93720000Y-101075000D03*
X96800000Y-101075000D03*
X93720000Y-101475000D03*
X96800000Y-101475000D03*
X93720000Y-101875000D03*
X96800000Y-101875000D03*
X93720000Y-102275000D03*
X96800000Y-102275000D03*
X93720000Y-102675000D03*
X96800000Y-102675000D03*
X93720000Y-103075000D03*
X96800000Y-103075000D03*
X93720000Y-103475000D03*
X96800000Y-103475000D03*
X93720000Y-103875000D03*
X96800000Y-103875000D03*
X93720000Y-104275000D03*
X96800000Y-104275000D03*
X93720000Y-104675000D03*
X96800000Y-104675000D03*
X93720000Y-105075000D03*
X96800000Y-105075000D03*
X93720000Y-105475000D03*
X96800000Y-105475000D03*
X93720000Y-105875000D03*
X96800000Y-105875000D03*
D21*
X61760000Y-117575000D03*
X61760000Y-69575000D03*
X94760000Y-117575000D03*
X94760000Y-69575000D03*
%TD*%
D13*
%TO.C,MH4*%
X59497499Y-125642699D03*
X60200443Y-123945643D03*
X60200443Y-127339755D03*
X61897499Y-123242699D03*
D14*
X61897499Y-125642699D03*
D13*
X61897499Y-128042699D03*
X63594555Y-123945643D03*
X63594555Y-127339755D03*
X64297499Y-125642699D03*
%TD*%
D12*
%TO.C,H2OBC1*%
X186967499Y-42727699D03*
X186967499Y-40187699D03*
X189507499Y-42727699D03*
X189507499Y-40187699D03*
X192047499Y-42727699D03*
X192047499Y-40187699D03*
X194587499Y-42727699D03*
X194587499Y-40187699D03*
X197127499Y-42727699D03*
X197127499Y-40187699D03*
X199667499Y-42727699D03*
X199667499Y-40187699D03*
X202207499Y-42727699D03*
X202207499Y-40187699D03*
X204747499Y-42727699D03*
X204747499Y-40187699D03*
X207287499Y-42727699D03*
X207287499Y-40187699D03*
X209827499Y-42727699D03*
X209827499Y-40187699D03*
X212367499Y-42727699D03*
X212367499Y-40187699D03*
X214907499Y-42727699D03*
X214907499Y-40187699D03*
X217447499Y-42727699D03*
X217447499Y-40187699D03*
X219987499Y-42727699D03*
X219987499Y-40187699D03*
X222527499Y-42727699D03*
X222527499Y-40187699D03*
X225067499Y-42727699D03*
X225067499Y-40187699D03*
X227607499Y-42727699D03*
X227607499Y-40187699D03*
X230147499Y-42727699D03*
X230147499Y-40187699D03*
X232687499Y-42727699D03*
X232687499Y-40187699D03*
X235227499Y-42727699D03*
X235227499Y-40187699D03*
X237767499Y-42727699D03*
X237767499Y-40187699D03*
X240307499Y-42727699D03*
X240307499Y-40187699D03*
X242847499Y-42727699D03*
X242847499Y-40187699D03*
X245387499Y-42727699D03*
X245387499Y-40187699D03*
X247927499Y-42727699D03*
X247927499Y-40187699D03*
X250467499Y-42727699D03*
X250467499Y-40187699D03*
%TD*%
D13*
%TO.C,MH2*%
X136967499Y-39917699D03*
X137670443Y-38220643D03*
X137670443Y-41614755D03*
X139367499Y-37517699D03*
D14*
X139367499Y-39917699D03*
D13*
X139367499Y-42317699D03*
X141064555Y-38220643D03*
X141064555Y-41614755D03*
X141767499Y-39917699D03*
%TD*%
%TO.C,MH3*%
X139507499Y-125642699D03*
X140210443Y-123945643D03*
X140210443Y-127339755D03*
X141907499Y-123242699D03*
D14*
X141907499Y-125642699D03*
D13*
X141907499Y-128042699D03*
X143604555Y-123945643D03*
X143604555Y-127339755D03*
X144307499Y-125642699D03*
%TD*%
D11*
%TO.C,R5*%
X75750000Y-126875000D03*
X75750000Y-125050000D03*
%TD*%
D13*
%TO.C,MH7*%
X370487499Y-125662699D03*
X371190443Y-123965643D03*
X371190443Y-127359755D03*
X372887499Y-123262699D03*
D14*
X372887499Y-125662699D03*
D13*
X372887499Y-128062699D03*
X374584555Y-123965643D03*
X374584555Y-127359755D03*
X375287499Y-125662699D03*
%TD*%
D12*
%TO.C,H1OBC1*%
X301767499Y-47557699D03*
X301767499Y-45017699D03*
X304307499Y-47557699D03*
X304307499Y-45017699D03*
X306847499Y-47557699D03*
X306847499Y-45017699D03*
X309387499Y-47557699D03*
X309387499Y-45017699D03*
X311927499Y-47557699D03*
X311927499Y-45017699D03*
X314467499Y-47557699D03*
X314467499Y-45017699D03*
X317007499Y-47557699D03*
X317007499Y-45017699D03*
X319547499Y-47557699D03*
X319547499Y-45017699D03*
X322087499Y-47557699D03*
X322087499Y-45017699D03*
X324627499Y-47557699D03*
X324627499Y-45017699D03*
X327167499Y-47557699D03*
X327167499Y-45017699D03*
X329707499Y-47557699D03*
X329707499Y-45017699D03*
X332247499Y-47557699D03*
X332247499Y-45017699D03*
X334787499Y-47557699D03*
X334787499Y-45017699D03*
X337327499Y-47557699D03*
X337327499Y-45017699D03*
X339867499Y-47557699D03*
X339867499Y-45017699D03*
X342407499Y-47557699D03*
X342407499Y-45017699D03*
X344947499Y-47557699D03*
X344947499Y-45017699D03*
X347487499Y-47557699D03*
X347487499Y-45017699D03*
X350027499Y-47557699D03*
X350027499Y-45017699D03*
X352567499Y-47557699D03*
X352567499Y-45017699D03*
X355107499Y-47557699D03*
X355107499Y-45017699D03*
X357647499Y-47557699D03*
X357647499Y-45017699D03*
X360187499Y-47557699D03*
X360187499Y-45017699D03*
X362727499Y-47557699D03*
X362727499Y-45017699D03*
X365267499Y-47557699D03*
X365267499Y-45017699D03*
%TD*%
D22*
%TO.C,U1*%
X105240000Y-53380000D03*
X105240000Y-118150000D03*
X139530000Y-53380000D03*
X139530000Y-118150000D03*
%TD*%
D23*
%TO.C,U2*%
X86831299Y-61470500D03*
X87618699Y-61470500D03*
X86831299Y-60683100D03*
X87618699Y-60683100D03*
%TD*%
%TO.C,U4*%
X75000000Y-75737400D03*
X75787400Y-75737400D03*
X75000000Y-74950000D03*
X75787400Y-74950000D03*
%TD*%
M02*
