%TF.GenerationSoftware,KiCad,Pcbnew,9.0.3*%
%TF.CreationDate,2025-07-26T14:09:02-04:00*%
%TF.ProjectId,Avionics,4176696f-6e69-4637-932e-6b696361645f,V0.8*%
%TF.SameCoordinates,Original*%
%TF.FileFunction,Profile,NP*%
%FSLAX46Y46*%
G04 Gerber Fmt 4.6, Leading zero omitted, Abs format (unit mm)*
G04 Created by KiCad (PCBNEW 9.0.3) date 2025-07-26 14:09:02*
%MOMM*%
%LPD*%
G01*
G04 APERTURE LIST*
%TA.AperFunction,Profile*%
%ADD10C,0.100000*%
%TD*%
G04 APERTURE END LIST*
D10*
X146034999Y-92927499D02*
G75*
G02*
X145082501Y-91974999I1J952499D01*
G01*
X324817999Y-36762699D02*
X343232999Y-36762699D01*
X58722499Y-91974999D02*
G75*
G02*
X57769999Y-92927499I-952499J-1D01*
G01*
X146034999Y-34837699D02*
G75*
G02*
X146987501Y-35790199I1J-952501D01*
G01*
X208112999Y-35107699D02*
G75*
G02*
X209065501Y-36060199I1J-952501D01*
G01*
X56817499Y-35790199D02*
X56817499Y-71680399D01*
X322912999Y-34857699D02*
G75*
G02*
X323865501Y-35810199I1J-952501D01*
G01*
X174902499Y-92244999D02*
G75*
G02*
X173949999Y-93197499I-952499J-1D01*
G01*
X173949999Y-130992699D02*
G75*
G02*
X172997501Y-130040199I1J952499D01*
G01*
X345137999Y-130742699D02*
X377014999Y-130742699D01*
X146987499Y-71680399D02*
G75*
G02*
X146034999Y-72632899I-952499J-1D01*
G01*
X172997499Y-36060199D02*
G75*
G02*
X173949999Y-35107699I952501J-1D01*
G01*
X56817499Y-93879999D02*
G75*
G02*
X57769999Y-92927499I952501J-1D01*
G01*
X377014999Y-92947499D02*
G75*
G02*
X377967501Y-93899999I1J-952501D01*
G01*
X345137999Y-34857699D02*
X377014999Y-34857699D01*
X345137999Y-130742699D02*
G75*
G02*
X344185501Y-129790199I1J952499D01*
G01*
X263167499Y-130040199D02*
G75*
G02*
X262214999Y-130992699I-952499J-1D01*
G01*
X288749999Y-130742699D02*
G75*
G02*
X287797501Y-129790199I1J952499D01*
G01*
X114157999Y-34837699D02*
X146034999Y-34837699D01*
X230337999Y-130992699D02*
X262214999Y-130992699D01*
X289702499Y-91994999D02*
G75*
G02*
X288749999Y-92947499I-952499J-1D01*
G01*
X172997499Y-94149999D02*
X172997499Y-130040199D01*
X173949999Y-130992699D02*
X208112999Y-130992699D01*
X377967499Y-35810199D02*
X377967499Y-71700399D01*
X287797499Y-35810199D02*
G75*
G02*
X288749999Y-34857699I952501J-1D01*
G01*
X173949999Y-35107699D02*
X208112999Y-35107699D01*
X57769999Y-34837699D02*
X91932999Y-34837699D01*
X377014999Y-34857699D02*
G75*
G02*
X377967501Y-35810199I1J-952501D01*
G01*
X145082499Y-73585399D02*
G75*
G02*
X146034999Y-72632899I952501J-1D01*
G01*
X112252999Y-128817699D02*
G75*
G02*
X113205501Y-129770199I1J-952501D01*
G01*
X262214999Y-93197499D02*
G75*
G02*
X263167501Y-94149999I1J-952501D01*
G01*
X146987499Y-35790199D02*
X146987499Y-71680399D01*
X209065499Y-130040199D02*
G75*
G02*
X210017999Y-129087699I952501J-1D01*
G01*
X230337999Y-130992699D02*
G75*
G02*
X229385501Y-130040199I1J952499D01*
G01*
X93837999Y-128817699D02*
X112252999Y-128817699D01*
X377967499Y-93899999D02*
X377967499Y-129790199D01*
X287797499Y-93899999D02*
G75*
G02*
X288749999Y-92947499I952501J-1D01*
G01*
X230337999Y-35107699D02*
X262214999Y-35107699D01*
X57769999Y-72632899D02*
G75*
G02*
X58722501Y-73585399I1J-952501D01*
G01*
X58722499Y-73585399D02*
X58722499Y-91974999D01*
X113205499Y-35790199D02*
G75*
G02*
X114157999Y-34837699I952501J-1D01*
G01*
X376062499Y-73605399D02*
G75*
G02*
X377014999Y-72652899I952501J-1D01*
G01*
X288749999Y-130742699D02*
X322912999Y-130742699D01*
X92885499Y-129770199D02*
G75*
G02*
X91932999Y-130722699I-952499J-1D01*
G01*
X57769999Y-130722699D02*
X91932999Y-130722699D01*
X377967499Y-129790199D02*
G75*
G02*
X377014999Y-130742699I-952499J-1D01*
G01*
X229385499Y-36060199D02*
G75*
G02*
X228432999Y-37012699I-952499J-1D01*
G01*
X91932999Y-34837699D02*
G75*
G02*
X92885501Y-35790199I1J-952501D01*
G01*
X56817499Y-35790199D02*
G75*
G02*
X57769999Y-34837699I952501J-1D01*
G01*
X323865499Y-129790199D02*
G75*
G02*
X324817999Y-128837699I952501J-1D01*
G01*
X174902499Y-73855399D02*
X174902499Y-92244999D01*
X172997499Y-94149999D02*
G75*
G02*
X173949999Y-93197499I952501J-1D01*
G01*
X262214999Y-35107699D02*
G75*
G02*
X263167501Y-36060199I1J-952501D01*
G01*
X146034999Y-92927499D02*
G75*
G02*
X146987501Y-93879999I1J-952501D01*
G01*
X262214999Y-93197499D02*
G75*
G02*
X261262501Y-92244999I1J952499D01*
G01*
X288749999Y-34857699D02*
X322912999Y-34857699D01*
X93837999Y-36742699D02*
G75*
G02*
X92885501Y-35790199I1J952499D01*
G01*
X228432999Y-129087699D02*
G75*
G02*
X229385501Y-130040199I1J-952501D01*
G01*
X210017999Y-37012699D02*
G75*
G02*
X209065501Y-36060199I1J952499D01*
G01*
X377014999Y-92947499D02*
G75*
G02*
X376062501Y-91994999I1J952499D01*
G01*
X376062499Y-73605399D02*
X376062499Y-91994999D01*
X57769999Y-72632899D02*
G75*
G02*
X56817501Y-71680399I1J952499D01*
G01*
X287797499Y-93899999D02*
X287797499Y-129790199D01*
X343232999Y-128837699D02*
G75*
G02*
X344185501Y-129790199I1J-952501D01*
G01*
X209065499Y-130040199D02*
G75*
G02*
X208112999Y-130992699I-952499J-1D01*
G01*
X145082499Y-73585399D02*
X145082499Y-91974999D01*
X229385499Y-36060199D02*
G75*
G02*
X230337999Y-35107699I952501J-1D01*
G01*
X344185499Y-35810199D02*
G75*
G02*
X343232999Y-36762699I-952499J-1D01*
G01*
X114157999Y-130722699D02*
G75*
G02*
X113205501Y-129770199I1J952499D01*
G01*
X263167499Y-94149999D02*
X263167499Y-130040199D01*
X263167499Y-36060199D02*
X263167499Y-71950399D01*
X114157999Y-130722699D02*
X146034999Y-130722699D01*
X288749999Y-72652899D02*
G75*
G02*
X289702501Y-73605399I1J-952501D01*
G01*
X377967499Y-71700399D02*
G75*
G02*
X377014999Y-72652899I-952499J-1D01*
G01*
X263167499Y-71950399D02*
G75*
G02*
X262214999Y-72902899I-952499J-1D01*
G01*
X172997499Y-36060199D02*
X172997499Y-71950399D01*
X146987499Y-93879999D02*
X146987499Y-129770199D01*
X289702499Y-73605399D02*
X289702499Y-91994999D01*
X288749999Y-72652899D02*
G75*
G02*
X287797501Y-71700399I1J952499D01*
G01*
X324817999Y-128837699D02*
X343232999Y-128837699D01*
X323865499Y-129790199D02*
G75*
G02*
X322912999Y-130742699I-952499J-1D01*
G01*
X287797499Y-35810199D02*
X287797499Y-71700399D01*
X93837999Y-36742699D02*
X112252999Y-36742699D01*
X344185499Y-35810199D02*
G75*
G02*
X345137999Y-34857699I952501J-1D01*
G01*
X173949999Y-72902899D02*
G75*
G02*
X174902501Y-73855399I1J-952501D01*
G01*
X261262499Y-73855399D02*
X261262499Y-92244999D01*
X173949999Y-72902899D02*
G75*
G02*
X172997501Y-71950399I1J952499D01*
G01*
X261262499Y-73855399D02*
G75*
G02*
X262214999Y-72902899I952501J-1D01*
G01*
X92885499Y-129770199D02*
G75*
G02*
X93837999Y-128817699I952501J-1D01*
G01*
X210017999Y-129087699D02*
X228432999Y-129087699D01*
X56817499Y-93879999D02*
X56817499Y-129770199D01*
X57769999Y-130722699D02*
G75*
G02*
X56817501Y-129770199I1J952499D01*
G01*
X324817999Y-36762699D02*
G75*
G02*
X323865501Y-35810199I1J952499D01*
G01*
X210017999Y-37012699D02*
X228432999Y-37012699D01*
X113205499Y-35790199D02*
G75*
G02*
X112252999Y-36742699I-952499J-1D01*
G01*
X146987499Y-129770199D02*
G75*
G02*
X146034999Y-130722699I-952499J-1D01*
G01*
M02*
