M48
; DRILL file {KiCad 9.0.3} date 2025-07-26T14:09:05-0400
; FORMAT={-:-/ absolute / metric / decimal}
; #@! TF.CreationDate,2025-07-26T14:09:05-04:00
; #@! TF.GenerationSoftware,Kicad,Pcbnew,9.0.3
; #@! TF.FileFunction,Plated,1,4,PTH
FMAT,2
METRIC
; #@! TA.AperFunction,Plated,PTH,ViaDrill
T1C0.300
; #@! TA.AperFunction,Plated,PTH,ComponentDrill
T2C0.500
; #@! TA.AperFunction,Plated,PTH,ComponentDrill
T3C0.508
; #@! TA.AperFunction,Plated,PTH,ComponentDrill
T4C0.800
; #@! TA.AperFunction,Plated,PTH,ComponentDrill
T5C1.500
; #@! TA.AperFunction,Plated,PTH,ComponentDrill
T6C1.700
; #@! TA.AperFunction,Plated,PTH,ComponentDrill
T7C2.700
; #@! TA.AperFunction,Plated,PTH,ComponentDrill
T8C3.200
; #@! TA.AperFunction,Plated,PTH,ComponentDrill
T9C3.450
%
G90
G05
T1
X58.9Y-101.7
X58.9Y-102.5
X58.9Y-103.3
X60.45Y-108.575
X60.55Y-101.7
X60.55Y-102.5
X60.55Y-103.25
X61.25Y-86.25
X61.25Y-87.475
X61.25Y-88.7
X61.25Y-90.5
X61.25Y-92.45
X61.25Y-94.45
X61.25Y-96.45
X61.25Y-97.9
X61.25Y-99.05
X61.25Y-100.45
X61.3Y-108.575
X61.95Y-105.475
X64.099Y-102.299
X64.1Y-101.45
X67.025Y-102.125
X74.4Y-72.65
X74.469Y-71.617
X75.069Y-79.0
X75.7Y-78.0
X76.519Y-71.517
X83.4Y-56.75
X86.9Y-63.652
X87.175Y-54.4
X95.25Y-87.5
X95.25Y-88.7
X95.25Y-89.9
X95.25Y-91.1
X95.25Y-92.3
X95.25Y-93.5
X95.25Y-94.7
X95.25Y-95.9
X95.25Y-97.1
X95.25Y-98.3
X95.25Y-99.5
X95.25Y-100.7
X95.25Y-101.9
X95.25Y-103.1
X95.25Y-104.3
X95.25Y-105.45
X103.675Y-63.02
X103.675Y-64.06
X103.675Y-65.1
X103.675Y-66.14
X103.675Y-67.18
X103.675Y-68.22
X105.575Y-65.65
X111.125Y-69.325
X114.1Y-60.7
X116.191Y-67.603
X116.675Y-65.95
X116.75Y-50.275
X116.75Y-51.425
X117.125Y-50.85
X117.5Y-50.275
X117.5Y-51.425
X117.525Y-67.572
X118.21Y-63.864
X118.7Y-55.6
X120.425Y-62.05
X120.425Y-62.887
X120.425Y-63.725
X120.45Y-69.1
X120.45Y-69.938
X120.45Y-70.775
X124.4Y-55.6
X125.55Y-52.8
X129.175Y-69.225
T2
X59.497Y-125.643
X60.2Y-123.946
X60.2Y-127.34
X61.897Y-123.243
X61.897Y-128.043
X63.307Y-39.918
X63.595Y-123.946
X63.595Y-127.34
X64.01Y-38.221
X64.01Y-41.615
X64.297Y-125.643
X65.707Y-37.518
X65.707Y-42.318
X67.405Y-38.221
X67.405Y-41.615
X68.107Y-39.918
X136.967Y-39.918
X137.67Y-38.221
X137.67Y-41.615
X139.367Y-37.518
X139.367Y-42.318
X139.507Y-125.643
X140.21Y-123.946
X140.21Y-127.34
X141.065Y-38.221
X141.065Y-41.615
X141.767Y-39.918
X141.907Y-123.243
X141.907Y-128.043
X143.605Y-123.946
X143.605Y-127.34
X144.307Y-125.643
X175.677Y-125.913
X176.38Y-124.216
X176.38Y-127.61
X178.077Y-123.513
X178.077Y-128.313
X179.487Y-40.188
X179.775Y-124.216
X179.775Y-127.61
X180.19Y-38.491
X180.19Y-41.885
X180.477Y-125.913
X181.887Y-37.788
X181.887Y-42.588
X183.585Y-38.491
X183.585Y-41.885
X184.287Y-40.188
X253.147Y-40.188
X253.85Y-38.491
X253.85Y-41.885
X255.547Y-37.788
X255.547Y-42.588
X255.687Y-125.913
X256.39Y-124.216
X256.39Y-127.61
X257.245Y-38.491
X257.245Y-41.885
X257.947Y-40.188
X258.087Y-123.513
X258.087Y-128.313
X259.785Y-124.216
X259.785Y-127.61
X260.487Y-125.913
X290.477Y-125.663
X291.18Y-123.966
X291.18Y-127.36
X292.877Y-123.263
X292.877Y-128.063
X294.287Y-39.938
X294.575Y-123.966
X294.575Y-127.36
X294.99Y-38.241
X294.99Y-41.635
X295.277Y-125.663
X296.687Y-37.538
X296.687Y-42.338
X298.385Y-38.241
X298.385Y-41.635
X299.087Y-39.938
X367.947Y-39.938
X368.65Y-38.241
X368.65Y-41.635
X370.347Y-37.538
X370.347Y-42.338
X370.487Y-125.663
X371.19Y-123.966
X371.19Y-127.36
X372.045Y-38.241
X372.045Y-41.635
X372.747Y-39.938
X372.887Y-123.263
X372.887Y-128.063
X374.585Y-123.966
X374.585Y-127.36
X375.287Y-125.663
T3
X75.0Y-74.95
X75.0Y-75.737
X75.787Y-74.95
X75.787Y-75.737
X86.831Y-60.683
X86.831Y-61.47
X87.619Y-60.683
X87.619Y-61.47
T4
X70.787Y-39.918
X70.787Y-42.458
X70.787Y-44.998
X70.787Y-47.538
X73.327Y-39.918
X73.327Y-42.458
X73.327Y-44.998
X73.327Y-47.538
X75.867Y-39.918
X75.867Y-42.458
X75.867Y-44.998
X75.867Y-47.538
X78.407Y-39.918
X78.407Y-42.458
X78.407Y-44.998
X78.407Y-47.538
X80.947Y-39.918
X80.947Y-42.458
X80.947Y-44.998
X80.947Y-47.538
X83.487Y-39.918
X83.487Y-42.458
X83.487Y-44.998
X83.487Y-47.538
X86.027Y-39.918
X86.027Y-42.458
X86.027Y-44.998
X86.027Y-47.538
X88.567Y-39.918
X88.567Y-42.458
X88.567Y-44.998
X88.567Y-47.538
X91.107Y-39.918
X91.107Y-42.458
X91.107Y-44.998
X91.107Y-47.538
X93.647Y-39.918
X93.647Y-42.458
X93.647Y-44.998
X93.647Y-47.538
X96.187Y-39.918
X96.187Y-42.458
X96.187Y-44.998
X96.187Y-47.538
X98.727Y-39.918
X98.727Y-42.458
X98.727Y-44.998
X98.727Y-47.538
X101.267Y-39.918
X101.267Y-42.458
X101.267Y-44.998
X101.267Y-47.538
X103.807Y-39.918
X103.807Y-42.458
X103.807Y-44.998
X103.807Y-47.538
X106.347Y-39.918
X106.347Y-42.458
X106.347Y-44.998
X106.347Y-47.538
X108.887Y-39.918
X108.887Y-42.458
X108.887Y-44.998
X108.887Y-47.538
X111.427Y-39.918
X111.427Y-42.458
X111.427Y-44.998
X111.427Y-47.538
X113.967Y-39.918
X113.967Y-42.458
X113.967Y-44.998
X113.967Y-47.538
X116.507Y-39.918
X116.507Y-42.458
X116.507Y-44.998
X116.507Y-47.538
X119.047Y-39.918
X119.047Y-42.458
X119.047Y-44.998
X119.047Y-47.538
X121.587Y-39.918
X121.587Y-42.458
X121.587Y-44.998
X121.587Y-47.538
X124.127Y-39.918
X124.127Y-42.458
X124.127Y-44.998
X124.127Y-47.538
X126.667Y-39.918
X126.667Y-42.458
X126.667Y-44.998
X126.667Y-47.538
X129.207Y-39.918
X129.207Y-42.458
X129.207Y-44.998
X129.207Y-47.538
X131.747Y-39.918
X131.747Y-42.458
X131.747Y-44.998
X131.747Y-47.538
X134.287Y-39.918
X134.287Y-42.458
X134.287Y-44.998
X134.287Y-47.538
X186.967Y-40.188
X186.967Y-42.728
X186.967Y-45.268
X186.967Y-47.808
X189.507Y-40.188
X189.507Y-42.728
X189.507Y-45.268
X189.507Y-47.808
X192.047Y-40.188
X192.047Y-42.728
X192.047Y-45.268
X192.047Y-47.808
X194.587Y-40.188
X194.587Y-42.728
X194.587Y-45.268
X194.587Y-47.808
X197.127Y-40.188
X197.127Y-42.728
X197.127Y-45.268
X197.127Y-47.808
X199.667Y-40.188
X199.667Y-42.728
X199.667Y-45.268
X199.667Y-47.808
X202.207Y-40.188
X202.207Y-42.728
X202.207Y-45.268
X202.207Y-47.808
X204.747Y-40.188
X204.747Y-42.728
X204.747Y-45.268
X204.747Y-47.808
X207.287Y-40.188
X207.287Y-42.728
X207.287Y-45.268
X207.287Y-47.808
X209.827Y-40.188
X209.827Y-42.728
X209.827Y-45.268
X209.827Y-47.808
X212.367Y-40.188
X212.367Y-42.728
X212.367Y-45.268
X212.367Y-47.808
X214.907Y-40.188
X214.907Y-42.728
X214.907Y-45.268
X214.907Y-47.808
X217.447Y-40.188
X217.447Y-42.728
X217.447Y-45.268
X217.447Y-47.808
X219.987Y-40.188
X219.987Y-42.728
X219.987Y-45.268
X219.987Y-47.808
X222.527Y-40.188
X222.527Y-42.728
X222.527Y-45.268
X222.527Y-47.808
X225.067Y-40.188
X225.067Y-42.728
X225.067Y-45.268
X225.067Y-47.808
X227.607Y-40.188
X227.607Y-42.728
X227.607Y-45.268
X227.607Y-47.808
X230.147Y-40.188
X230.147Y-42.728
X230.147Y-45.268
X230.147Y-47.808
X232.687Y-40.188
X232.687Y-42.728
X232.687Y-45.268
X232.687Y-47.808
X235.227Y-40.188
X235.227Y-42.728
X235.227Y-45.268
X235.227Y-47.808
X237.767Y-40.188
X237.767Y-42.728
X237.767Y-45.268
X237.767Y-47.808
X240.307Y-40.188
X240.307Y-42.728
X240.307Y-45.268
X240.307Y-47.808
X242.847Y-40.188
X242.847Y-42.728
X242.847Y-45.268
X242.847Y-47.808
X245.387Y-40.188
X245.387Y-42.728
X245.387Y-45.268
X245.387Y-47.808
X247.927Y-40.188
X247.927Y-42.728
X247.927Y-45.268
X247.927Y-47.808
X250.467Y-40.188
X250.467Y-42.728
X250.467Y-45.268
X250.467Y-47.808
X301.767Y-39.938
X301.767Y-42.478
X301.767Y-45.018
X301.767Y-47.558
X304.307Y-39.938
X304.307Y-42.478
X304.307Y-45.018
X304.307Y-47.558
X306.847Y-39.938
X306.847Y-42.478
X306.847Y-45.018
X306.847Y-47.558
X309.387Y-39.938
X309.387Y-42.478
X309.387Y-45.018
X309.387Y-47.558
X311.927Y-39.938
X311.927Y-42.478
X311.927Y-45.018
X311.927Y-47.558
X314.467Y-39.938
X314.467Y-42.478
X314.467Y-45.018
X314.467Y-47.558
X317.007Y-39.938
X317.007Y-42.478
X317.007Y-45.018
X317.007Y-47.558
X319.547Y-39.938
X319.547Y-42.478
X319.547Y-45.018
X319.547Y-47.558
X322.087Y-39.938
X322.087Y-42.478
X322.087Y-45.018
X322.087Y-47.558
X324.627Y-39.938
X324.627Y-42.478
X324.627Y-45.018
X324.627Y-47.558
X327.167Y-39.938
X327.167Y-42.478
X327.167Y-45.018
X327.167Y-47.558
X329.707Y-39.938
X329.707Y-42.478
X329.707Y-45.018
X329.707Y-47.558
X332.247Y-39.938
X332.247Y-42.478
X332.247Y-45.018
X332.247Y-47.558
X334.787Y-39.938
X334.787Y-42.478
X334.787Y-45.018
X334.787Y-47.558
X337.327Y-39.938
X337.327Y-42.478
X337.327Y-45.018
X337.327Y-47.558
X339.867Y-39.938
X339.867Y-42.478
X339.867Y-45.018
X339.867Y-47.558
X342.407Y-39.938
X342.407Y-42.478
X342.407Y-45.018
X342.407Y-47.558
X344.947Y-39.938
X344.947Y-42.478
X344.947Y-45.018
X344.947Y-47.558
X347.487Y-39.938
X347.487Y-42.478
X347.487Y-45.018
X347.487Y-47.558
X350.027Y-39.938
X350.027Y-42.478
X350.027Y-45.018
X350.027Y-47.558
X352.567Y-39.938
X352.567Y-42.478
X352.567Y-45.018
X352.567Y-47.558
X355.107Y-39.938
X355.107Y-42.478
X355.107Y-45.018
X355.107Y-47.558
X357.647Y-39.938
X357.647Y-42.478
X357.647Y-45.018
X357.647Y-47.558
X360.187Y-39.938
X360.187Y-42.478
X360.187Y-45.018
X360.187Y-47.558
X362.727Y-39.938
X362.727Y-42.478
X362.727Y-45.018
X362.727Y-47.558
X365.267Y-39.938
X365.267Y-42.478
X365.267Y-45.018
X365.267Y-47.558
T5
X125.69Y-126.085
T6
X123.15Y-123.545
X123.15Y-128.625
X128.23Y-123.545
X128.23Y-128.625
T7
X61.76Y-69.575
X61.76Y-117.575
X94.76Y-69.575
X94.76Y-117.575
T8
X61.897Y-125.643
X65.707Y-39.918
X139.367Y-39.918
X141.907Y-125.643
X178.077Y-125.913
X181.887Y-40.188
X255.547Y-40.188
X258.087Y-125.913
X292.877Y-125.663
X296.687Y-39.938
X370.347Y-39.938
X372.887Y-125.663
T9
X105.24Y-53.38
X105.24Y-118.15
X139.53Y-53.38
X139.53Y-118.15
T2
G00X62.45Y-56.75
M15
G01X62.45Y-57.45
M16
G05
G00X67.9Y-60.7
M15
G01X67.2Y-60.7
M16
G05
G00X68.9Y-53.9
M15
G01X68.2Y-53.9
M16
G05
G00X70.9Y-52.6
M15
G01X70.2Y-52.6
M16
G05
G00X70.9Y-55.5
M15
G01X70.2Y-55.5
M16
G05
M30
