%TF.GenerationSoftware,KiCad,Pcbnew,9.0.3*%
%TF.CreationDate,2025-07-26T14:09:02-04:00*%
%TF.ProjectId,Avionics,4176696f-6e69-4637-932e-6b696361645f,V0.8*%
%TF.SameCoordinates,Original*%
%TF.FileFunction,Paste,Bot*%
%TF.FilePolarity,Positive*%
%FSLAX46Y46*%
G04 Gerber Fmt 4.6, Leading zero omitted, Abs format (unit mm)*
G04 Created by KiCad (PCBNEW 9.0.3) date 2025-07-26 14:09:02*
%MOMM*%
%LPD*%
G01*
G04 APERTURE LIST*
G04 Aperture macros list*
%AMRoundRect*
0 Rectangle with rounded corners*
0 $1 Rounding radius*
0 $2 $3 $4 $5 $6 $7 $8 $9 X,Y pos of 4 corners*
0 Add a 4 corners polygon primitive as box body*
4,1,4,$2,$3,$4,$5,$6,$7,$8,$9,$2,$3,0*
0 Add four circle primitives for the rounded corners*
1,1,$1+$1,$2,$3*
1,1,$1+$1,$4,$5*
1,1,$1+$1,$6,$7*
1,1,$1+$1,$8,$9*
0 Add four rect primitives between the rounded corners*
20,1,$1+$1,$2,$3,$4,$5,0*
20,1,$1+$1,$4,$5,$6,$7,0*
20,1,$1+$1,$6,$7,$8,$9,0*
20,1,$1+$1,$8,$9,$2,$3,0*%
G04 Aperture macros list end*
%ADD10C,0.000000*%
%ADD11RoundRect,0.250000X0.250000X0.475000X-0.250000X0.475000X-0.250000X-0.475000X0.250000X-0.475000X0*%
%ADD12O,1.200000X0.399999*%
%ADD13RoundRect,0.250000X-0.475000X0.250000X-0.475000X-0.250000X0.475000X-0.250000X0.475000X0.250000X0*%
%ADD14RoundRect,0.250000X0.450000X-0.262500X0.450000X0.262500X-0.450000X0.262500X-0.450000X-0.262500X0*%
%ADD15RoundRect,0.250000X0.262500X0.450000X-0.262500X0.450000X-0.262500X-0.450000X0.262500X-0.450000X0*%
%ADD16R,0.575000X0.249999*%
%ADD17R,0.249999X0.575000*%
%ADD18R,0.349999X0.850001*%
%ADD19RoundRect,0.231250X0.231250X0.231250X-0.231250X0.231250X-0.231250X-0.231250X0.231250X-0.231250X0*%
%ADD20RoundRect,0.250000X-0.250000X-0.475000X0.250000X-0.475000X0.250000X0.475000X-0.250000X0.475000X0*%
%ADD21R,1.041400X4.191000*%
%ADD22RoundRect,0.250000X-0.450000X0.262500X-0.450000X-0.262500X0.450000X-0.262500X0.450000X0.262500X0*%
%ADD23RoundRect,0.250000X0.475000X-0.250000X0.475000X0.250000X-0.475000X0.250000X-0.475000X-0.250000X0*%
%ADD24R,0.330200X0.812800*%
%ADD25RoundRect,0.250000X-0.262500X-0.450000X0.262500X-0.450000X0.262500X0.450000X-0.262500X0.450000X0*%
G04 APERTURE END LIST*
D10*
%TO.C,U6*%
G36*
X115776903Y-65270003D02*
G01*
X115826901Y-65320001D01*
X115826903Y-65919999D01*
X115776901Y-65969999D01*
X114339901Y-65969999D01*
X114289901Y-65919999D01*
X114289901Y-65794998D01*
X114339901Y-65745001D01*
X114677901Y-65745001D01*
X114677901Y-65495002D01*
X114339901Y-65495002D01*
X114289901Y-65444999D01*
X114289901Y-65320001D01*
X114339901Y-65270001D01*
X115776903Y-65270003D01*
G37*
%TO.C,U2*%
G36*
X86731299Y-60441679D02*
G01*
X86589878Y-60583100D01*
X86372829Y-60583100D01*
X86372829Y-60351630D01*
X86731299Y-60351630D01*
X86731299Y-60441679D01*
G37*
G36*
X86731299Y-61711921D02*
G01*
X86731299Y-61801970D01*
X86372829Y-61801970D01*
X86372829Y-61570500D01*
X86589878Y-61570500D01*
X86731299Y-61711921D01*
G37*
G36*
X88077169Y-60583100D02*
G01*
X87860120Y-60583100D01*
X87718699Y-60441679D01*
X87718699Y-60351630D01*
X88077169Y-60351630D01*
X88077169Y-60583100D01*
G37*
G36*
X88077169Y-61801970D02*
G01*
X87718699Y-61801970D01*
X87718699Y-61711921D01*
X87860120Y-61570500D01*
X88077169Y-61570500D01*
X88077169Y-61801970D01*
G37*
G36*
X86731299Y-60924521D02*
G01*
X86731299Y-61229079D01*
X86589878Y-61370500D01*
X86372829Y-61370500D01*
X86372829Y-60783100D01*
X86589878Y-60783100D01*
X86731299Y-60924521D01*
G37*
G36*
X87518699Y-60441679D02*
G01*
X87377278Y-60583100D01*
X87072720Y-60583100D01*
X86931299Y-60441679D01*
X86931299Y-60351630D01*
X87518699Y-60351630D01*
X87518699Y-60441679D01*
G37*
G36*
X87518699Y-61711921D02*
G01*
X87518699Y-61801970D01*
X86931299Y-61801970D01*
X86931299Y-61711921D01*
X87072720Y-61570500D01*
X87377278Y-61570500D01*
X87518699Y-61711921D01*
G37*
G36*
X88077169Y-61370500D02*
G01*
X87860120Y-61370500D01*
X87718699Y-61229079D01*
X87718699Y-60924521D01*
X87860120Y-60783100D01*
X88077169Y-60783100D01*
X88077169Y-61370500D01*
G37*
G36*
X87518699Y-60924521D02*
G01*
X87518699Y-61229079D01*
X87377278Y-61370500D01*
X87072720Y-61370500D01*
X86931299Y-61229079D01*
X86931299Y-60924521D01*
X87072720Y-60783100D01*
X87377278Y-60783100D01*
X87518699Y-60924521D01*
G37*
%TO.C,U4*%
G36*
X74900000Y-74708579D02*
G01*
X74758579Y-74850000D01*
X74541530Y-74850000D01*
X74541530Y-74618530D01*
X74900000Y-74618530D01*
X74900000Y-74708579D01*
G37*
G36*
X74900000Y-75978821D02*
G01*
X74900000Y-76068870D01*
X74541530Y-76068870D01*
X74541530Y-75837400D01*
X74758579Y-75837400D01*
X74900000Y-75978821D01*
G37*
G36*
X76245870Y-74850000D02*
G01*
X76028821Y-74850000D01*
X75887400Y-74708579D01*
X75887400Y-74618530D01*
X76245870Y-74618530D01*
X76245870Y-74850000D01*
G37*
G36*
X76245870Y-76068870D02*
G01*
X75887400Y-76068870D01*
X75887400Y-75978821D01*
X76028821Y-75837400D01*
X76245870Y-75837400D01*
X76245870Y-76068870D01*
G37*
G36*
X74900000Y-75191421D02*
G01*
X74900000Y-75495979D01*
X74758579Y-75637400D01*
X74541530Y-75637400D01*
X74541530Y-75050000D01*
X74758579Y-75050000D01*
X74900000Y-75191421D01*
G37*
G36*
X75687400Y-74708579D02*
G01*
X75545979Y-74850000D01*
X75241421Y-74850000D01*
X75100000Y-74708579D01*
X75100000Y-74618530D01*
X75687400Y-74618530D01*
X75687400Y-74708579D01*
G37*
G36*
X75687400Y-75978821D02*
G01*
X75687400Y-76068870D01*
X75100000Y-76068870D01*
X75100000Y-75978821D01*
X75241421Y-75837400D01*
X75545979Y-75837400D01*
X75687400Y-75978821D01*
G37*
G36*
X76245870Y-75637400D02*
G01*
X76028821Y-75637400D01*
X75887400Y-75495979D01*
X75887400Y-75191421D01*
X76028821Y-75050000D01*
X76245870Y-75050000D01*
X76245870Y-75637400D01*
G37*
G36*
X75687400Y-75191421D02*
G01*
X75687400Y-75495979D01*
X75545979Y-75637400D01*
X75241421Y-75637400D01*
X75100000Y-75495979D01*
X75100000Y-75191421D01*
X75241421Y-75050000D01*
X75545979Y-75050000D01*
X75687400Y-75191421D01*
G37*
%TD*%
D11*
%TO.C,C19*%
X119060000Y-62550000D03*
X117160000Y-62550000D03*
%TD*%
%TO.C,C10*%
X72650000Y-72400000D03*
X70750000Y-72400000D03*
%TD*%
D12*
%TO.C,U5*%
X124400000Y-50200000D03*
X124400000Y-50850001D03*
X124400000Y-51500000D03*
X124400000Y-52150001D03*
X124400000Y-52800000D03*
X124400000Y-53450001D03*
X124400000Y-54100000D03*
X124400000Y-54750001D03*
X118700001Y-54750001D03*
X118700001Y-54100000D03*
X118700001Y-53450001D03*
X118700001Y-52800000D03*
X118700001Y-52150001D03*
X118700001Y-51500000D03*
X118700001Y-50850001D03*
X118700001Y-50200000D03*
%TD*%
D11*
%TO.C,C5*%
X84551799Y-58151799D03*
X82651799Y-58151799D03*
%TD*%
D13*
%TO.C,C9*%
X76103699Y-80250000D03*
X76103699Y-82150000D03*
%TD*%
D14*
%TO.C,R9*%
X65400000Y-101300000D03*
X65400000Y-99475000D03*
%TD*%
D13*
%TO.C,C13*%
X124500000Y-65837500D03*
X124500000Y-67737500D03*
%TD*%
%TO.C,C18*%
X116925000Y-68700000D03*
X116925000Y-70600000D03*
%TD*%
%TO.C,C14*%
X126600000Y-65837500D03*
X126600000Y-67737500D03*
%TD*%
D15*
%TO.C,R17*%
X109857500Y-72100000D03*
X108032500Y-72100000D03*
%TD*%
%TO.C,R14*%
X114100000Y-59475000D03*
X112275000Y-59475000D03*
%TD*%
D13*
%TO.C,C15*%
X128600000Y-65837500D03*
X128600000Y-67737500D03*
%TD*%
D15*
%TO.C,R3*%
X89825600Y-53384899D03*
X88000600Y-53384899D03*
%TD*%
%TO.C,R15*%
X120550000Y-67450000D03*
X118725000Y-67450000D03*
%TD*%
D11*
%TO.C,C6*%
X84551799Y-60151799D03*
X82651799Y-60151799D03*
%TD*%
D16*
%TO.C,U6*%
X117402501Y-65120001D03*
X117402501Y-65620000D03*
X117402501Y-66120027D03*
D17*
X116689901Y-66782601D03*
X116189900Y-66782601D03*
D18*
X115640000Y-66644997D03*
D19*
X114769900Y-66670000D03*
D18*
X115640000Y-64595001D03*
D17*
X116189900Y-64457399D03*
X116689901Y-64457399D03*
%TD*%
D13*
%TO.C,C22*%
X105600000Y-67775000D03*
X105600000Y-69675000D03*
%TD*%
D15*
%TO.C,R2*%
X74701199Y-67616900D03*
X72876199Y-67616900D03*
%TD*%
D11*
%TO.C,C12*%
X127825000Y-50550000D03*
X125925000Y-50550000D03*
%TD*%
D20*
%TO.C,C1*%
X75518699Y-65616900D03*
X77418699Y-65616900D03*
%TD*%
D11*
%TO.C,C11*%
X72650000Y-74450000D03*
X70750000Y-74450000D03*
%TD*%
D21*
%TO.C,L1*%
X111746800Y-65620000D03*
X108140000Y-65620000D03*
%TD*%
D22*
%TO.C,R11*%
X130700000Y-65825000D03*
X130700000Y-67650000D03*
%TD*%
D23*
%TO.C,C17*%
X126600000Y-64237500D03*
X126600000Y-62337500D03*
%TD*%
D20*
%TO.C,C20*%
X107975000Y-70100000D03*
X109875000Y-70100000D03*
%TD*%
D24*
%TO.C,U2*%
X88199998Y-62550000D03*
X87550000Y-62550000D03*
X86899998Y-62550000D03*
X86250000Y-62550000D03*
X86250000Y-59603600D03*
X86899998Y-59603600D03*
X87550000Y-59603600D03*
X88199998Y-59603600D03*
%TD*%
D13*
%TO.C,C4*%
X87901799Y-64851799D03*
X87901799Y-66751799D03*
%TD*%
D14*
%TO.C,R16*%
X111645000Y-73945000D03*
X111645000Y-72120000D03*
%TD*%
D22*
%TO.C,R10*%
X65400000Y-102900000D03*
X65400000Y-104725000D03*
%TD*%
D25*
%TO.C,R13*%
X119087500Y-65125000D03*
X120912500Y-65125000D03*
%TD*%
D23*
%TO.C,C16*%
X128620000Y-64237500D03*
X128620000Y-62337500D03*
%TD*%
D24*
%TO.C,U4*%
X76368699Y-76816900D03*
X75718701Y-76816900D03*
X75068699Y-76816900D03*
X74418701Y-76816900D03*
X74418701Y-73870500D03*
X75068699Y-73870500D03*
X75718701Y-73870500D03*
X76368699Y-73870500D03*
%TD*%
D15*
%TO.C,R4*%
X86365600Y-53384899D03*
X84540600Y-53384899D03*
%TD*%
D13*
%TO.C,C3*%
X85851799Y-64851799D03*
X85851799Y-66751799D03*
%TD*%
D22*
%TO.C,R12*%
X130700000Y-69237500D03*
X130700000Y-71062500D03*
%TD*%
D12*
%TO.C,U3*%
X138124999Y-65212500D03*
X138124999Y-65862501D03*
X138124999Y-66512500D03*
X138124999Y-67162501D03*
X138124999Y-67812500D03*
X138124999Y-68462501D03*
X138124999Y-69112500D03*
X138124999Y-69762501D03*
X132425000Y-69762501D03*
X132425000Y-69112500D03*
X132425000Y-68462501D03*
X132425000Y-67812500D03*
X132425000Y-67162501D03*
X132425000Y-66512500D03*
X132425000Y-65862501D03*
X132425000Y-65212500D03*
%TD*%
D15*
%TO.C,R1*%
X78143699Y-67616900D03*
X76318699Y-67616900D03*
%TD*%
%TO.C,R7*%
X63800000Y-110225000D03*
X61975000Y-110225000D03*
%TD*%
D23*
%TO.C,C21*%
X105600000Y-63550000D03*
X105600000Y-61650000D03*
%TD*%
D20*
%TO.C,C2*%
X87133100Y-51384899D03*
X89033100Y-51384899D03*
%TD*%
D25*
%TO.C,R8*%
X61975000Y-113475000D03*
X63800000Y-113475000D03*
%TD*%
D13*
%TO.C,C8*%
X74068699Y-80250000D03*
X74068699Y-82150000D03*
%TD*%
%TO.C,C7*%
X139700000Y-63437501D03*
X139700000Y-65337501D03*
%TD*%
M02*
